<svg xmlns="http://www.w3.org/2000/svg" width="80" height="80" viewBox="0 0 80 80"><g fill="none" fill-rule="evenodd"><rect width="80" height="80" fill="#0F88EB" rx="16"/><path fill="#FFF" d="M41.72 42.412s-.095-4.016-1.45-4.016h-9.448c.315-4.904.586-9.1.586-13.06h9.238s.315-4.05-1.59-4.002h-15.98c.63-2.375 1.324-4.333 2.27-6.867 0 0-4.345 0-5.826 3.907-.612 1.612-2.385 7.808-5.543 14.138 1.065-.114 4.58-.21 6.653-4.018.38-1.063.554-1.734 1.028-3.158h5.21c0 1.9-.366 11.87-.453 13.06h-9.442c-2.12 0-2.732 4.016-2.732 4.016h11.847c-.792 9.023-5.083 16.646-12.818 22.66 3.7 1.057 7.386-.17 9.21-1.794 0 0 4.15-3.78 6.423-12.534L38.647 62.5s1.43-4.868-.224-7.24c-1.37-1.614-5.067-5.982-6.643-7.566l-2.643 2.1c.79-2.53 1.29-5.008 1.45-7.382H41.72zM62.4 55.467h-5.83l-4.99 3.2-.913-3.197-2.398-.003-.005-30.934h14.128l.005 30.934zM44.267 20.533v38.934h4.05l1.4 4.8 7.622-4.8h9.06V20.533H44.265z"/></g></svg>