<?xml version="1.0" standalone="yes"?>
<svg xmlns="http://www.w3.org/2000/svg" version="1.1" width="113" height="113">
<rect x="0" y="0" width="113" height="113" style="fill:#fff;shape-rendering:crispEdges;"/>
<rect x="6.848484848484849" y="6.848484848484849" width="3.4242424242424243" height="3.4242424242424243" style="fill:#000;shape-rendering:crispEdges;"/>
<rect x="10.272727272727273" y="6.848484848484849" width="3.4242424242424243" height="3.4242424242424243" style="fill:#000;shape-rendering:crispEdges;"/>
<rect x="13.696969696969697" y="6.848484848484849" width="3.4242424242424243" height="3.4242424242424243" style="fill:#000;shape-rendering:crispEdges;"/>
<rect x="17.12121212121212" y="6.848484848484849" width="3.4242424242424243" height="3.4242424242424243" style="fill:#000;shape-rendering:crispEdges;"/>
<rect x="20.545454545454547" y="6.848484848484849" width="3.4242424242424243" height="3.4242424242424243" style="fill:#000;shape-rendering:crispEdges;"/>
<rect x="23.96969696969697" y="6.848484848484849" width="3.4242424242424243" height="3.4242424242424243" style="fill:#000;shape-rendering:crispEdges;"/>
<rect x="27.393939393939394" y="6.848484848484849" width="3.4242424242424243" height="3.4242424242424243" style="fill:#000;shape-rendering:crispEdges;"/>
<rect x="34.24242424242424" y="6.848484848484849" width="3.4242424242424243" height="3.4242424242424243" style="fill:#000;shape-rendering:crispEdges;"/>
<rect x="47.939393939393945" y="6.848484848484849" width="3.4242424242424243" height="3.4242424242424243" style="fill:#000;shape-rendering:crispEdges;"/>
<rect x="51.36363636363637" y="6.848484848484849" width="3.4242424242424243" height="3.4242424242424243" style="fill:#000;shape-rendering:crispEdges;"/>
<rect x="61.63636363636364" y="6.848484848484849" width="3.4242424242424243" height="3.4242424242424243" style="fill:#000;shape-rendering:crispEdges;"/>
<rect x="65.06060606060606" y="6.848484848484849" width="3.4242424242424243" height="3.4242424242424243" style="fill:#000;shape-rendering:crispEdges;"/>
<rect x="68.48484848484848" y="6.848484848484849" width="3.4242424242424243" height="3.4242424242424243" style="fill:#000;shape-rendering:crispEdges;"/>
<rect x="71.9090909090909" y="6.848484848484849" width="3.4242424242424243" height="3.4242424242424243" style="fill:#000;shape-rendering:crispEdges;"/>
<rect x="75.33333333333333" y="6.848484848484849" width="3.4242424242424243" height="3.4242424242424243" style="fill:#000;shape-rendering:crispEdges;"/>
<rect x="82.18181818181817" y="6.848484848484849" width="3.4242424242424243" height="3.4242424242424243" style="fill:#000;shape-rendering:crispEdges;"/>
<rect x="85.60606060606061" y="6.848484848484849" width="3.4242424242424243" height="3.4242424242424243" style="fill:#000;shape-rendering:crispEdges;"/>
<rect x="89.03030303030303" y="6.848484848484849" width="3.4242424242424243" height="3.4242424242424243" style="fill:#000;shape-rendering:crispEdges;"/>
<rect x="92.45454545454545" y="6.848484848484849" width="3.4242424242424243" height="3.4242424242424243" style="fill:#000;shape-rendering:crispEdges;"/>
<rect x="95.87878787878788" y="6.848484848484849" width="3.4242424242424243" height="3.4242424242424243" style="fill:#000;shape-rendering:crispEdges;"/>
<rect x="99.3030303030303" y="6.848484848484849" width="3.4242424242424243" height="3.4242424242424243" style="fill:#000;shape-rendering:crispEdges;"/>
<rect x="102.72727272727272" y="6.848484848484849" width="3.4242424242424243" height="3.4242424242424243" style="fill:#000;shape-rendering:crispEdges;"/>
<rect x="6.848484848484849" y="10.272727272727273" width="3.4242424242424243" height="3.4242424242424243" style="fill:#000;shape-rendering:crispEdges;"/>
<rect x="27.393939393939394" y="10.272727272727273" width="3.4242424242424243" height="3.4242424242424243" style="fill:#000;shape-rendering:crispEdges;"/>
<rect x="41.09090909090909" y="10.272727272727273" width="3.4242424242424243" height="3.4242424242424243" style="fill:#000;shape-rendering:crispEdges;"/>
<rect x="51.36363636363637" y="10.272727272727273" width="3.4242424242424243" height="3.4242424242424243" style="fill:#000;shape-rendering:crispEdges;"/>
<rect x="61.63636363636364" y="10.272727272727273" width="3.4242424242424243" height="3.4242424242424243" style="fill:#000;shape-rendering:crispEdges;"/>
<rect x="68.48484848484848" y="10.272727272727273" width="3.4242424242424243" height="3.4242424242424243" style="fill:#000;shape-rendering:crispEdges;"/>
<rect x="71.9090909090909" y="10.272727272727273" width="3.4242424242424243" height="3.4242424242424243" style="fill:#000;shape-rendering:crispEdges;"/>
<rect x="75.33333333333333" y="10.272727272727273" width="3.4242424242424243" height="3.4242424242424243" style="fill:#000;shape-rendering:crispEdges;"/>
<rect x="82.18181818181817" y="10.272727272727273" width="3.4242424242424243" height="3.4242424242424243" style="fill:#000;shape-rendering:crispEdges;"/>
<rect x="102.72727272727272" y="10.272727272727273" width="3.4242424242424243" height="3.4242424242424243" style="fill:#000;shape-rendering:crispEdges;"/>
<rect x="6.848484848484849" y="13.696969696969697" width="3.4242424242424243" height="3.4242424242424243" style="fill:#000;shape-rendering:crispEdges;"/>
<rect x="13.696969696969697" y="13.696969696969697" width="3.4242424242424243" height="3.4242424242424243" style="fill:#000;shape-rendering:crispEdges;"/>
<rect x="17.12121212121212" y="13.696969696969697" width="3.4242424242424243" height="3.4242424242424243" style="fill:#000;shape-rendering:crispEdges;"/>
<rect x="20.545454545454547" y="13.696969696969697" width="3.4242424242424243" height="3.4242424242424243" style="fill:#000;shape-rendering:crispEdges;"/>
<rect x="27.393939393939394" y="13.696969696969697" width="3.4242424242424243" height="3.4242424242424243" style="fill:#000;shape-rendering:crispEdges;"/>
<rect x="41.09090909090909" y="13.696969696969697" width="3.4242424242424243" height="3.4242424242424243" style="fill:#000;shape-rendering:crispEdges;"/>
<rect x="47.939393939393945" y="13.696969696969697" width="3.4242424242424243" height="3.4242424242424243" style="fill:#000;shape-rendering:crispEdges;"/>
<rect x="54.78787878787879" y="13.696969696969697" width="3.4242424242424243" height="3.4242424242424243" style="fill:#000;shape-rendering:crispEdges;"/>
<rect x="58.21212121212122" y="13.696969696969697" width="3.4242424242424243" height="3.4242424242424243" style="fill:#000;shape-rendering:crispEdges;"/>
<rect x="68.48484848484848" y="13.696969696969697" width="3.4242424242424243" height="3.4242424242424243" style="fill:#000;shape-rendering:crispEdges;"/>
<rect x="82.18181818181817" y="13.696969696969697" width="3.4242424242424243" height="3.4242424242424243" style="fill:#000;shape-rendering:crispEdges;"/>
<rect x="89.03030303030303" y="13.696969696969697" width="3.4242424242424243" height="3.4242424242424243" style="fill:#000;shape-rendering:crispEdges;"/>
<rect x="92.45454545454545" y="13.696969696969697" width="3.4242424242424243" height="3.4242424242424243" style="fill:#000;shape-rendering:crispEdges;"/>
<rect x="95.87878787878788" y="13.696969696969697" width="3.4242424242424243" height="3.4242424242424243" style="fill:#000;shape-rendering:crispEdges;"/>
<rect x="102.72727272727272" y="13.696969696969697" width="3.4242424242424243" height="3.4242424242424243" style="fill:#000;shape-rendering:crispEdges;"/>
<rect x="6.848484848484849" y="17.12121212121212" width="3.4242424242424243" height="3.4242424242424243" style="fill:#000;shape-rendering:crispEdges;"/>
<rect x="13.696969696969697" y="17.12121212121212" width="3.4242424242424243" height="3.4242424242424243" style="fill:#000;shape-rendering:crispEdges;"/>
<rect x="17.12121212121212" y="17.12121212121212" width="3.4242424242424243" height="3.4242424242424243" style="fill:#000;shape-rendering:crispEdges;"/>
<rect x="20.545454545454547" y="17.12121212121212" width="3.4242424242424243" height="3.4242424242424243" style="fill:#000;shape-rendering:crispEdges;"/>
<rect x="27.393939393939394" y="17.12121212121212" width="3.4242424242424243" height="3.4242424242424243" style="fill:#000;shape-rendering:crispEdges;"/>
<rect x="34.24242424242424" y="17.12121212121212" width="3.4242424242424243" height="3.4242424242424243" style="fill:#000;shape-rendering:crispEdges;"/>
<rect x="54.78787878787879" y="17.12121212121212" width="3.4242424242424243" height="3.4242424242424243" style="fill:#000;shape-rendering:crispEdges;"/>
<rect x="65.06060606060606" y="17.12121212121212" width="3.4242424242424243" height="3.4242424242424243" style="fill:#000;shape-rendering:crispEdges;"/>
<rect x="68.48484848484848" y="17.12121212121212" width="3.4242424242424243" height="3.4242424242424243" style="fill:#000;shape-rendering:crispEdges;"/>
<rect x="82.18181818181817" y="17.12121212121212" width="3.4242424242424243" height="3.4242424242424243" style="fill:#000;shape-rendering:crispEdges;"/>
<rect x="89.03030303030303" y="17.12121212121212" width="3.4242424242424243" height="3.4242424242424243" style="fill:#000;shape-rendering:crispEdges;"/>
<rect x="92.45454545454545" y="17.12121212121212" width="3.4242424242424243" height="3.4242424242424243" style="fill:#000;shape-rendering:crispEdges;"/>
<rect x="95.87878787878788" y="17.12121212121212" width="3.4242424242424243" height="3.4242424242424243" style="fill:#000;shape-rendering:crispEdges;"/>
<rect x="102.72727272727272" y="17.12121212121212" width="3.4242424242424243" height="3.4242424242424243" style="fill:#000;shape-rendering:crispEdges;"/>
<rect x="6.848484848484849" y="20.545454545454547" width="3.4242424242424243" height="3.4242424242424243" style="fill:#000;shape-rendering:crispEdges;"/>
<rect x="13.696969696969697" y="20.545454545454547" width="3.4242424242424243" height="3.4242424242424243" style="fill:#000;shape-rendering:crispEdges;"/>
<rect x="17.12121212121212" y="20.545454545454547" width="3.4242424242424243" height="3.4242424242424243" style="fill:#000;shape-rendering:crispEdges;"/>
<rect x="20.545454545454547" y="20.545454545454547" width="3.4242424242424243" height="3.4242424242424243" style="fill:#000;shape-rendering:crispEdges;"/>
<rect x="27.393939393939394" y="20.545454545454547" width="3.4242424242424243" height="3.4242424242424243" style="fill:#000;shape-rendering:crispEdges;"/>
<rect x="34.24242424242424" y="20.545454545454547" width="3.4242424242424243" height="3.4242424242424243" style="fill:#000;shape-rendering:crispEdges;"/>
<rect x="37.66666666666667" y="20.545454545454547" width="3.4242424242424243" height="3.4242424242424243" style="fill:#000;shape-rendering:crispEdges;"/>
<rect x="51.36363636363637" y="20.545454545454547" width="3.4242424242424243" height="3.4242424242424243" style="fill:#000;shape-rendering:crispEdges;"/>
<rect x="58.21212121212122" y="20.545454545454547" width="3.4242424242424243" height="3.4242424242424243" style="fill:#000;shape-rendering:crispEdges;"/>
<rect x="61.63636363636364" y="20.545454545454547" width="3.4242424242424243" height="3.4242424242424243" style="fill:#000;shape-rendering:crispEdges;"/>
<rect x="68.48484848484848" y="20.545454545454547" width="3.4242424242424243" height="3.4242424242424243" style="fill:#000;shape-rendering:crispEdges;"/>
<rect x="82.18181818181817" y="20.545454545454547" width="3.4242424242424243" height="3.4242424242424243" style="fill:#000;shape-rendering:crispEdges;"/>
<rect x="89.03030303030303" y="20.545454545454547" width="3.4242424242424243" height="3.4242424242424243" style="fill:#000;shape-rendering:crispEdges;"/>
<rect x="92.45454545454545" y="20.545454545454547" width="3.4242424242424243" height="3.4242424242424243" style="fill:#000;shape-rendering:crispEdges;"/>
<rect x="95.87878787878788" y="20.545454545454547" width="3.4242424242424243" height="3.4242424242424243" style="fill:#000;shape-rendering:crispEdges;"/>
<rect x="102.72727272727272" y="20.545454545454547" width="3.4242424242424243" height="3.4242424242424243" style="fill:#000;shape-rendering:crispEdges;"/>
<rect x="6.848484848484849" y="23.96969696969697" width="3.4242424242424243" height="3.4242424242424243" style="fill:#000;shape-rendering:crispEdges;"/>
<rect x="27.393939393939394" y="23.96969696969697" width="3.4242424242424243" height="3.4242424242424243" style="fill:#000;shape-rendering:crispEdges;"/>
<rect x="34.24242424242424" y="23.96969696969697" width="3.4242424242424243" height="3.4242424242424243" style="fill:#000;shape-rendering:crispEdges;"/>
<rect x="37.66666666666667" y="23.96969696969697" width="3.4242424242424243" height="3.4242424242424243" style="fill:#000;shape-rendering:crispEdges;"/>
<rect x="47.939393939393945" y="23.96969696969697" width="3.4242424242424243" height="3.4242424242424243" style="fill:#000;shape-rendering:crispEdges;"/>
<rect x="51.36363636363637" y="23.96969696969697" width="3.4242424242424243" height="3.4242424242424243" style="fill:#000;shape-rendering:crispEdges;"/>
<rect x="65.06060606060606" y="23.96969696969697" width="3.4242424242424243" height="3.4242424242424243" style="fill:#000;shape-rendering:crispEdges;"/>
<rect x="68.48484848484848" y="23.96969696969697" width="3.4242424242424243" height="3.4242424242424243" style="fill:#000;shape-rendering:crispEdges;"/>
<rect x="71.9090909090909" y="23.96969696969697" width="3.4242424242424243" height="3.4242424242424243" style="fill:#000;shape-rendering:crispEdges;"/>
<rect x="75.33333333333333" y="23.96969696969697" width="3.4242424242424243" height="3.4242424242424243" style="fill:#000;shape-rendering:crispEdges;"/>
<rect x="82.18181818181817" y="23.96969696969697" width="3.4242424242424243" height="3.4242424242424243" style="fill:#000;shape-rendering:crispEdges;"/>
<rect x="102.72727272727272" y="23.96969696969697" width="3.4242424242424243" height="3.4242424242424243" style="fill:#000;shape-rendering:crispEdges;"/>
<rect x="6.848484848484849" y="27.393939393939394" width="3.4242424242424243" height="3.4242424242424243" style="fill:#000;shape-rendering:crispEdges;"/>
<rect x="10.272727272727273" y="27.393939393939394" width="3.4242424242424243" height="3.4242424242424243" style="fill:#000;shape-rendering:crispEdges;"/>
<rect x="13.696969696969697" y="27.393939393939394" width="3.4242424242424243" height="3.4242424242424243" style="fill:#000;shape-rendering:crispEdges;"/>
<rect x="17.12121212121212" y="27.393939393939394" width="3.4242424242424243" height="3.4242424242424243" style="fill:#000;shape-rendering:crispEdges;"/>
<rect x="20.545454545454547" y="27.393939393939394" width="3.4242424242424243" height="3.4242424242424243" style="fill:#000;shape-rendering:crispEdges;"/>
<rect x="23.96969696969697" y="27.393939393939394" width="3.4242424242424243" height="3.4242424242424243" style="fill:#000;shape-rendering:crispEdges;"/>
<rect x="27.393939393939394" y="27.393939393939394" width="3.4242424242424243" height="3.4242424242424243" style="fill:#000;shape-rendering:crispEdges;"/>
<rect x="34.24242424242424" y="27.393939393939394" width="3.4242424242424243" height="3.4242424242424243" style="fill:#000;shape-rendering:crispEdges;"/>
<rect x="41.09090909090909" y="27.393939393939394" width="3.4242424242424243" height="3.4242424242424243" style="fill:#000;shape-rendering:crispEdges;"/>
<rect x="47.939393939393945" y="27.393939393939394" width="3.4242424242424243" height="3.4242424242424243" style="fill:#000;shape-rendering:crispEdges;"/>
<rect x="54.78787878787879" y="27.393939393939394" width="3.4242424242424243" height="3.4242424242424243" style="fill:#000;shape-rendering:crispEdges;"/>
<rect x="61.63636363636364" y="27.393939393939394" width="3.4242424242424243" height="3.4242424242424243" style="fill:#000;shape-rendering:crispEdges;"/>
<rect x="68.48484848484848" y="27.393939393939394" width="3.4242424242424243" height="3.4242424242424243" style="fill:#000;shape-rendering:crispEdges;"/>
<rect x="75.33333333333333" y="27.393939393939394" width="3.4242424242424243" height="3.4242424242424243" style="fill:#000;shape-rendering:crispEdges;"/>
<rect x="82.18181818181817" y="27.393939393939394" width="3.4242424242424243" height="3.4242424242424243" style="fill:#000;shape-rendering:crispEdges;"/>
<rect x="85.60606060606061" y="27.393939393939394" width="3.4242424242424243" height="3.4242424242424243" style="fill:#000;shape-rendering:crispEdges;"/>
<rect x="89.03030303030303" y="27.393939393939394" width="3.4242424242424243" height="3.4242424242424243" style="fill:#000;shape-rendering:crispEdges;"/>
<rect x="92.45454545454545" y="27.393939393939394" width="3.4242424242424243" height="3.4242424242424243" style="fill:#000;shape-rendering:crispEdges;"/>
<rect x="95.87878787878788" y="27.393939393939394" width="3.4242424242424243" height="3.4242424242424243" style="fill:#000;shape-rendering:crispEdges;"/>
<rect x="99.3030303030303" y="27.393939393939394" width="3.4242424242424243" height="3.4242424242424243" style="fill:#000;shape-rendering:crispEdges;"/>
<rect x="102.72727272727272" y="27.393939393939394" width="3.4242424242424243" height="3.4242424242424243" style="fill:#000;shape-rendering:crispEdges;"/>
<rect x="34.24242424242424" y="30.818181818181817" width="3.4242424242424243" height="3.4242424242424243" style="fill:#000;shape-rendering:crispEdges;"/>
<rect x="37.66666666666667" y="30.818181818181817" width="3.4242424242424243" height="3.4242424242424243" style="fill:#000;shape-rendering:crispEdges;"/>
<rect x="44.515151515151516" y="30.818181818181817" width="3.4242424242424243" height="3.4242424242424243" style="fill:#000;shape-rendering:crispEdges;"/>
<rect x="51.36363636363637" y="30.818181818181817" width="3.4242424242424243" height="3.4242424242424243" style="fill:#000;shape-rendering:crispEdges;"/>
<rect x="65.06060606060606" y="30.818181818181817" width="3.4242424242424243" height="3.4242424242424243" style="fill:#000;shape-rendering:crispEdges;"/>
<rect x="6.848484848484849" y="34.24242424242424" width="3.4242424242424243" height="3.4242424242424243" style="fill:#000;shape-rendering:crispEdges;"/>
<rect x="10.272727272727273" y="34.24242424242424" width="3.4242424242424243" height="3.4242424242424243" style="fill:#000;shape-rendering:crispEdges;"/>
<rect x="13.696969696969697" y="34.24242424242424" width="3.4242424242424243" height="3.4242424242424243" style="fill:#000;shape-rendering:crispEdges;"/>
<rect x="20.545454545454547" y="34.24242424242424" width="3.4242424242424243" height="3.4242424242424243" style="fill:#000;shape-rendering:crispEdges;"/>
<rect x="27.393939393939394" y="34.24242424242424" width="3.4242424242424243" height="3.4242424242424243" style="fill:#000;shape-rendering:crispEdges;"/>
<rect x="34.24242424242424" y="34.24242424242424" width="3.4242424242424243" height="3.4242424242424243" style="fill:#000;shape-rendering:crispEdges;"/>
<rect x="37.66666666666667" y="34.24242424242424" width="3.4242424242424243" height="3.4242424242424243" style="fill:#000;shape-rendering:crispEdges;"/>
<rect x="41.09090909090909" y="34.24242424242424" width="3.4242424242424243" height="3.4242424242424243" style="fill:#000;shape-rendering:crispEdges;"/>
<rect x="54.78787878787879" y="34.24242424242424" width="3.4242424242424243" height="3.4242424242424243" style="fill:#000;shape-rendering:crispEdges;"/>
<rect x="61.63636363636364" y="34.24242424242424" width="3.4242424242424243" height="3.4242424242424243" style="fill:#000;shape-rendering:crispEdges;"/>
<rect x="65.06060606060606" y="34.24242424242424" width="3.4242424242424243" height="3.4242424242424243" style="fill:#000;shape-rendering:crispEdges;"/>
<rect x="68.48484848484848" y="34.24242424242424" width="3.4242424242424243" height="3.4242424242424243" style="fill:#000;shape-rendering:crispEdges;"/>
<rect x="71.9090909090909" y="34.24242424242424" width="3.4242424242424243" height="3.4242424242424243" style="fill:#000;shape-rendering:crispEdges;"/>
<rect x="75.33333333333333" y="34.24242424242424" width="3.4242424242424243" height="3.4242424242424243" style="fill:#000;shape-rendering:crispEdges;"/>
<rect x="78.75757575757575" y="34.24242424242424" width="3.4242424242424243" height="3.4242424242424243" style="fill:#000;shape-rendering:crispEdges;"/>
<rect x="82.18181818181817" y="34.24242424242424" width="3.4242424242424243" height="3.4242424242424243" style="fill:#000;shape-rendering:crispEdges;"/>
<rect x="85.60606060606061" y="34.24242424242424" width="3.4242424242424243" height="3.4242424242424243" style="fill:#000;shape-rendering:crispEdges;"/>
<rect x="89.03030303030303" y="34.24242424242424" width="3.4242424242424243" height="3.4242424242424243" style="fill:#000;shape-rendering:crispEdges;"/>
<rect x="92.45454545454545" y="34.24242424242424" width="3.4242424242424243" height="3.4242424242424243" style="fill:#000;shape-rendering:crispEdges;"/>
<rect x="102.72727272727272" y="34.24242424242424" width="3.4242424242424243" height="3.4242424242424243" style="fill:#000;shape-rendering:crispEdges;"/>
<rect x="10.272727272727273" y="37.66666666666667" width="3.4242424242424243" height="3.4242424242424243" style="fill:#000;shape-rendering:crispEdges;"/>
<rect x="23.96969696969697" y="37.66666666666667" width="3.4242424242424243" height="3.4242424242424243" style="fill:#000;shape-rendering:crispEdges;"/>
<rect x="30.818181818181817" y="37.66666666666667" width="3.4242424242424243" height="3.4242424242424243" style="fill:#000;shape-rendering:crispEdges;"/>
<rect x="34.24242424242424" y="37.66666666666667" width="3.4242424242424243" height="3.4242424242424243" style="fill:#000;shape-rendering:crispEdges;"/>
<rect x="37.66666666666667" y="37.66666666666667" width="3.4242424242424243" height="3.4242424242424243" style="fill:#000;shape-rendering:crispEdges;"/>
<rect x="41.09090909090909" y="37.66666666666667" width="3.4242424242424243" height="3.4242424242424243" style="fill:#000;shape-rendering:crispEdges;"/>
<rect x="51.36363636363637" y="37.66666666666667" width="3.4242424242424243" height="3.4242424242424243" style="fill:#000;shape-rendering:crispEdges;"/>
<rect x="58.21212121212122" y="37.66666666666667" width="3.4242424242424243" height="3.4242424242424243" style="fill:#000;shape-rendering:crispEdges;"/>
<rect x="65.06060606060606" y="37.66666666666667" width="3.4242424242424243" height="3.4242424242424243" style="fill:#000;shape-rendering:crispEdges;"/>
<rect x="71.9090909090909" y="37.66666666666667" width="3.4242424242424243" height="3.4242424242424243" style="fill:#000;shape-rendering:crispEdges;"/>
<rect x="75.33333333333333" y="37.66666666666667" width="3.4242424242424243" height="3.4242424242424243" style="fill:#000;shape-rendering:crispEdges;"/>
<rect x="78.75757575757575" y="37.66666666666667" width="3.4242424242424243" height="3.4242424242424243" style="fill:#000;shape-rendering:crispEdges;"/>
<rect x="85.60606060606061" y="37.66666666666667" width="3.4242424242424243" height="3.4242424242424243" style="fill:#000;shape-rendering:crispEdges;"/>
<rect x="89.03030303030303" y="37.66666666666667" width="3.4242424242424243" height="3.4242424242424243" style="fill:#000;shape-rendering:crispEdges;"/>
<rect x="92.45454545454545" y="37.66666666666667" width="3.4242424242424243" height="3.4242424242424243" style="fill:#000;shape-rendering:crispEdges;"/>
<rect x="95.87878787878788" y="37.66666666666667" width="3.4242424242424243" height="3.4242424242424243" style="fill:#000;shape-rendering:crispEdges;"/>
<rect x="102.72727272727272" y="37.66666666666667" width="3.4242424242424243" height="3.4242424242424243" style="fill:#000;shape-rendering:crispEdges;"/>
<rect x="6.848484848484849" y="41.09090909090909" width="3.4242424242424243" height="3.4242424242424243" style="fill:#000;shape-rendering:crispEdges;"/>
<rect x="17.12121212121212" y="41.09090909090909" width="3.4242424242424243" height="3.4242424242424243" style="fill:#000;shape-rendering:crispEdges;"/>
<rect x="20.545454545454547" y="41.09090909090909" width="3.4242424242424243" height="3.4242424242424243" style="fill:#000;shape-rendering:crispEdges;"/>
<rect x="23.96969696969697" y="41.09090909090909" width="3.4242424242424243" height="3.4242424242424243" style="fill:#000;shape-rendering:crispEdges;"/>
<rect x="27.393939393939394" y="41.09090909090909" width="3.4242424242424243" height="3.4242424242424243" style="fill:#000;shape-rendering:crispEdges;"/>
<rect x="34.24242424242424" y="41.09090909090909" width="3.4242424242424243" height="3.4242424242424243" style="fill:#000;shape-rendering:crispEdges;"/>
<rect x="37.66666666666667" y="41.09090909090909" width="3.4242424242424243" height="3.4242424242424243" style="fill:#000;shape-rendering:crispEdges;"/>
<rect x="44.515151515151516" y="41.09090909090909" width="3.4242424242424243" height="3.4242424242424243" style="fill:#000;shape-rendering:crispEdges;"/>
<rect x="51.36363636363637" y="41.09090909090909" width="3.4242424242424243" height="3.4242424242424243" style="fill:#000;shape-rendering:crispEdges;"/>
<rect x="54.78787878787879" y="41.09090909090909" width="3.4242424242424243" height="3.4242424242424243" style="fill:#000;shape-rendering:crispEdges;"/>
<rect x="65.06060606060606" y="41.09090909090909" width="3.4242424242424243" height="3.4242424242424243" style="fill:#000;shape-rendering:crispEdges;"/>
<rect x="71.9090909090909" y="41.09090909090909" width="3.4242424242424243" height="3.4242424242424243" style="fill:#000;shape-rendering:crispEdges;"/>
<rect x="78.75757575757575" y="41.09090909090909" width="3.4242424242424243" height="3.4242424242424243" style="fill:#000;shape-rendering:crispEdges;"/>
<rect x="85.60606060606061" y="41.09090909090909" width="3.4242424242424243" height="3.4242424242424243" style="fill:#000;shape-rendering:crispEdges;"/>
<rect x="95.87878787878788" y="41.09090909090909" width="3.4242424242424243" height="3.4242424242424243" style="fill:#000;shape-rendering:crispEdges;"/>
<rect x="99.3030303030303" y="41.09090909090909" width="3.4242424242424243" height="3.4242424242424243" style="fill:#000;shape-rendering:crispEdges;"/>
<rect x="102.72727272727272" y="41.09090909090909" width="3.4242424242424243" height="3.4242424242424243" style="fill:#000;shape-rendering:crispEdges;"/>
<rect x="10.272727272727273" y="44.515151515151516" width="3.4242424242424243" height="3.4242424242424243" style="fill:#000;shape-rendering:crispEdges;"/>
<rect x="13.696969696969697" y="44.515151515151516" width="3.4242424242424243" height="3.4242424242424243" style="fill:#000;shape-rendering:crispEdges;"/>
<rect x="17.12121212121212" y="44.515151515151516" width="3.4242424242424243" height="3.4242424242424243" style="fill:#000;shape-rendering:crispEdges;"/>
<rect x="20.545454545454547" y="44.515151515151516" width="3.4242424242424243" height="3.4242424242424243" style="fill:#000;shape-rendering:crispEdges;"/>
<rect x="23.96969696969697" y="44.515151515151516" width="3.4242424242424243" height="3.4242424242424243" style="fill:#000;shape-rendering:crispEdges;"/>
<rect x="61.63636363636364" y="44.515151515151516" width="3.4242424242424243" height="3.4242424242424243" style="fill:#000;shape-rendering:crispEdges;"/>
<rect x="71.9090909090909" y="44.515151515151516" width="3.4242424242424243" height="3.4242424242424243" style="fill:#000;shape-rendering:crispEdges;"/>
<rect x="82.18181818181817" y="44.515151515151516" width="3.4242424242424243" height="3.4242424242424243" style="fill:#000;shape-rendering:crispEdges;"/>
<rect x="85.60606060606061" y="44.515151515151516" width="3.4242424242424243" height="3.4242424242424243" style="fill:#000;shape-rendering:crispEdges;"/>
<rect x="92.45454545454545" y="44.515151515151516" width="3.4242424242424243" height="3.4242424242424243" style="fill:#000;shape-rendering:crispEdges;"/>
<rect x="95.87878787878788" y="44.515151515151516" width="3.4242424242424243" height="3.4242424242424243" style="fill:#000;shape-rendering:crispEdges;"/>
<rect x="99.3030303030303" y="44.515151515151516" width="3.4242424242424243" height="3.4242424242424243" style="fill:#000;shape-rendering:crispEdges;"/>
<rect x="13.696969696969697" y="47.939393939393945" width="3.4242424242424243" height="3.4242424242424243" style="fill:#000;shape-rendering:crispEdges;"/>
<rect x="23.96969696969697" y="47.939393939393945" width="3.4242424242424243" height="3.4242424242424243" style="fill:#000;shape-rendering:crispEdges;"/>
<rect x="27.393939393939394" y="47.939393939393945" width="3.4242424242424243" height="3.4242424242424243" style="fill:#000;shape-rendering:crispEdges;"/>
<rect x="30.818181818181817" y="47.939393939393945" width="3.4242424242424243" height="3.4242424242424243" style="fill:#000;shape-rendering:crispEdges;"/>
<rect x="41.09090909090909" y="47.939393939393945" width="3.4242424242424243" height="3.4242424242424243" style="fill:#000;shape-rendering:crispEdges;"/>
<rect x="54.78787878787879" y="47.939393939393945" width="3.4242424242424243" height="3.4242424242424243" style="fill:#000;shape-rendering:crispEdges;"/>
<rect x="58.21212121212122" y="47.939393939393945" width="3.4242424242424243" height="3.4242424242424243" style="fill:#000;shape-rendering:crispEdges;"/>
<rect x="75.33333333333333" y="47.939393939393945" width="3.4242424242424243" height="3.4242424242424243" style="fill:#000;shape-rendering:crispEdges;"/>
<rect x="78.75757575757575" y="47.939393939393945" width="3.4242424242424243" height="3.4242424242424243" style="fill:#000;shape-rendering:crispEdges;"/>
<rect x="85.60606060606061" y="47.939393939393945" width="3.4242424242424243" height="3.4242424242424243" style="fill:#000;shape-rendering:crispEdges;"/>
<rect x="89.03030303030303" y="47.939393939393945" width="3.4242424242424243" height="3.4242424242424243" style="fill:#000;shape-rendering:crispEdges;"/>
<rect x="6.848484848484849" y="51.36363636363637" width="3.4242424242424243" height="3.4242424242424243" style="fill:#000;shape-rendering:crispEdges;"/>
<rect x="10.272727272727273" y="51.36363636363637" width="3.4242424242424243" height="3.4242424242424243" style="fill:#000;shape-rendering:crispEdges;"/>
<rect x="13.696969696969697" y="51.36363636363637" width="3.4242424242424243" height="3.4242424242424243" style="fill:#000;shape-rendering:crispEdges;"/>
<rect x="20.545454545454547" y="51.36363636363637" width="3.4242424242424243" height="3.4242424242424243" style="fill:#000;shape-rendering:crispEdges;"/>
<rect x="23.96969696969697" y="51.36363636363637" width="3.4242424242424243" height="3.4242424242424243" style="fill:#000;shape-rendering:crispEdges;"/>
<rect x="34.24242424242424" y="51.36363636363637" width="3.4242424242424243" height="3.4242424242424243" style="fill:#000;shape-rendering:crispEdges;"/>
<rect x="47.939393939393945" y="51.36363636363637" width="3.4242424242424243" height="3.4242424242424243" style="fill:#000;shape-rendering:crispEdges;"/>
<rect x="58.21212121212122" y="51.36363636363637" width="3.4242424242424243" height="3.4242424242424243" style="fill:#000;shape-rendering:crispEdges;"/>
<rect x="68.48484848484848" y="51.36363636363637" width="3.4242424242424243" height="3.4242424242424243" style="fill:#000;shape-rendering:crispEdges;"/>
<rect x="71.9090909090909" y="51.36363636363637" width="3.4242424242424243" height="3.4242424242424243" style="fill:#000;shape-rendering:crispEdges;"/>
<rect x="75.33333333333333" y="51.36363636363637" width="3.4242424242424243" height="3.4242424242424243" style="fill:#000;shape-rendering:crispEdges;"/>
<rect x="78.75757575757575" y="51.36363636363637" width="3.4242424242424243" height="3.4242424242424243" style="fill:#000;shape-rendering:crispEdges;"/>
<rect x="82.18181818181817" y="51.36363636363637" width="3.4242424242424243" height="3.4242424242424243" style="fill:#000;shape-rendering:crispEdges;"/>
<rect x="85.60606060606061" y="51.36363636363637" width="3.4242424242424243" height="3.4242424242424243" style="fill:#000;shape-rendering:crispEdges;"/>
<rect x="89.03030303030303" y="51.36363636363637" width="3.4242424242424243" height="3.4242424242424243" style="fill:#000;shape-rendering:crispEdges;"/>
<rect x="102.72727272727272" y="51.36363636363637" width="3.4242424242424243" height="3.4242424242424243" style="fill:#000;shape-rendering:crispEdges;"/>
<rect x="6.848484848484849" y="54.78787878787879" width="3.4242424242424243" height="3.4242424242424243" style="fill:#000;shape-rendering:crispEdges;"/>
<rect x="10.272727272727273" y="54.78787878787879" width="3.4242424242424243" height="3.4242424242424243" style="fill:#000;shape-rendering:crispEdges;"/>
<rect x="13.696969696969697" y="54.78787878787879" width="3.4242424242424243" height="3.4242424242424243" style="fill:#000;shape-rendering:crispEdges;"/>
<rect x="17.12121212121212" y="54.78787878787879" width="3.4242424242424243" height="3.4242424242424243" style="fill:#000;shape-rendering:crispEdges;"/>
<rect x="23.96969696969697" y="54.78787878787879" width="3.4242424242424243" height="3.4242424242424243" style="fill:#000;shape-rendering:crispEdges;"/>
<rect x="27.393939393939394" y="54.78787878787879" width="3.4242424242424243" height="3.4242424242424243" style="fill:#000;shape-rendering:crispEdges;"/>
<rect x="30.818181818181817" y="54.78787878787879" width="3.4242424242424243" height="3.4242424242424243" style="fill:#000;shape-rendering:crispEdges;"/>
<rect x="34.24242424242424" y="54.78787878787879" width="3.4242424242424243" height="3.4242424242424243" style="fill:#000;shape-rendering:crispEdges;"/>
<rect x="37.66666666666667" y="54.78787878787879" width="3.4242424242424243" height="3.4242424242424243" style="fill:#000;shape-rendering:crispEdges;"/>
<rect x="41.09090909090909" y="54.78787878787879" width="3.4242424242424243" height="3.4242424242424243" style="fill:#000;shape-rendering:crispEdges;"/>
<rect x="44.515151515151516" y="54.78787878787879" width="3.4242424242424243" height="3.4242424242424243" style="fill:#000;shape-rendering:crispEdges;"/>
<rect x="47.939393939393945" y="54.78787878787879" width="3.4242424242424243" height="3.4242424242424243" style="fill:#000;shape-rendering:crispEdges;"/>
<rect x="54.78787878787879" y="54.78787878787879" width="3.4242424242424243" height="3.4242424242424243" style="fill:#000;shape-rendering:crispEdges;"/>
<rect x="58.21212121212122" y="54.78787878787879" width="3.4242424242424243" height="3.4242424242424243" style="fill:#000;shape-rendering:crispEdges;"/>
<rect x="68.48484848484848" y="54.78787878787879" width="3.4242424242424243" height="3.4242424242424243" style="fill:#000;shape-rendering:crispEdges;"/>
<rect x="92.45454545454545" y="54.78787878787879" width="3.4242424242424243" height="3.4242424242424243" style="fill:#000;shape-rendering:crispEdges;"/>
<rect x="6.848484848484849" y="58.21212121212122" width="3.4242424242424243" height="3.4242424242424243" style="fill:#000;shape-rendering:crispEdges;"/>
<rect x="10.272727272727273" y="58.21212121212122" width="3.4242424242424243" height="3.4242424242424243" style="fill:#000;shape-rendering:crispEdges;"/>
<rect x="17.12121212121212" y="58.21212121212122" width="3.4242424242424243" height="3.4242424242424243" style="fill:#000;shape-rendering:crispEdges;"/>
<rect x="20.545454545454547" y="58.21212121212122" width="3.4242424242424243" height="3.4242424242424243" style="fill:#000;shape-rendering:crispEdges;"/>
<rect x="34.24242424242424" y="58.21212121212122" width="3.4242424242424243" height="3.4242424242424243" style="fill:#000;shape-rendering:crispEdges;"/>
<rect x="44.515151515151516" y="58.21212121212122" width="3.4242424242424243" height="3.4242424242424243" style="fill:#000;shape-rendering:crispEdges;"/>
<rect x="54.78787878787879" y="58.21212121212122" width="3.4242424242424243" height="3.4242424242424243" style="fill:#000;shape-rendering:crispEdges;"/>
<rect x="61.63636363636364" y="58.21212121212122" width="3.4242424242424243" height="3.4242424242424243" style="fill:#000;shape-rendering:crispEdges;"/>
<rect x="71.9090909090909" y="58.21212121212122" width="3.4242424242424243" height="3.4242424242424243" style="fill:#000;shape-rendering:crispEdges;"/>
<rect x="82.18181818181817" y="58.21212121212122" width="3.4242424242424243" height="3.4242424242424243" style="fill:#000;shape-rendering:crispEdges;"/>
<rect x="89.03030303030303" y="58.21212121212122" width="3.4242424242424243" height="3.4242424242424243" style="fill:#000;shape-rendering:crispEdges;"/>
<rect x="99.3030303030303" y="58.21212121212122" width="3.4242424242424243" height="3.4242424242424243" style="fill:#000;shape-rendering:crispEdges;"/>
<rect x="27.393939393939394" y="61.63636363636364" width="3.4242424242424243" height="3.4242424242424243" style="fill:#000;shape-rendering:crispEdges;"/>
<rect x="34.24242424242424" y="61.63636363636364" width="3.4242424242424243" height="3.4242424242424243" style="fill:#000;shape-rendering:crispEdges;"/>
<rect x="58.21212121212122" y="61.63636363636364" width="3.4242424242424243" height="3.4242424242424243" style="fill:#000;shape-rendering:crispEdges;"/>
<rect x="68.48484848484848" y="61.63636363636364" width="3.4242424242424243" height="3.4242424242424243" style="fill:#000;shape-rendering:crispEdges;"/>
<rect x="71.9090909090909" y="61.63636363636364" width="3.4242424242424243" height="3.4242424242424243" style="fill:#000;shape-rendering:crispEdges;"/>
<rect x="78.75757575757575" y="61.63636363636364" width="3.4242424242424243" height="3.4242424242424243" style="fill:#000;shape-rendering:crispEdges;"/>
<rect x="82.18181818181817" y="61.63636363636364" width="3.4242424242424243" height="3.4242424242424243" style="fill:#000;shape-rendering:crispEdges;"/>
<rect x="85.60606060606061" y="61.63636363636364" width="3.4242424242424243" height="3.4242424242424243" style="fill:#000;shape-rendering:crispEdges;"/>
<rect x="89.03030303030303" y="61.63636363636364" width="3.4242424242424243" height="3.4242424242424243" style="fill:#000;shape-rendering:crispEdges;"/>
<rect x="92.45454545454545" y="61.63636363636364" width="3.4242424242424243" height="3.4242424242424243" style="fill:#000;shape-rendering:crispEdges;"/>
<rect x="95.87878787878788" y="61.63636363636364" width="3.4242424242424243" height="3.4242424242424243" style="fill:#000;shape-rendering:crispEdges;"/>
<rect x="102.72727272727272" y="61.63636363636364" width="3.4242424242424243" height="3.4242424242424243" style="fill:#000;shape-rendering:crispEdges;"/>
<rect x="10.272727272727273" y="65.06060606060606" width="3.4242424242424243" height="3.4242424242424243" style="fill:#000;shape-rendering:crispEdges;"/>
<rect x="17.12121212121212" y="65.06060606060606" width="3.4242424242424243" height="3.4242424242424243" style="fill:#000;shape-rendering:crispEdges;"/>
<rect x="20.545454545454547" y="65.06060606060606" width="3.4242424242424243" height="3.4242424242424243" style="fill:#000;shape-rendering:crispEdges;"/>
<rect x="34.24242424242424" y="65.06060606060606" width="3.4242424242424243" height="3.4242424242424243" style="fill:#000;shape-rendering:crispEdges;"/>
<rect x="41.09090909090909" y="65.06060606060606" width="3.4242424242424243" height="3.4242424242424243" style="fill:#000;shape-rendering:crispEdges;"/>
<rect x="44.515151515151516" y="65.06060606060606" width="3.4242424242424243" height="3.4242424242424243" style="fill:#000;shape-rendering:crispEdges;"/>
<rect x="47.939393939393945" y="65.06060606060606" width="3.4242424242424243" height="3.4242424242424243" style="fill:#000;shape-rendering:crispEdges;"/>
<rect x="51.36363636363637" y="65.06060606060606" width="3.4242424242424243" height="3.4242424242424243" style="fill:#000;shape-rendering:crispEdges;"/>
<rect x="54.78787878787879" y="65.06060606060606" width="3.4242424242424243" height="3.4242424242424243" style="fill:#000;shape-rendering:crispEdges;"/>
<rect x="58.21212121212122" y="65.06060606060606" width="3.4242424242424243" height="3.4242424242424243" style="fill:#000;shape-rendering:crispEdges;"/>
<rect x="61.63636363636364" y="65.06060606060606" width="3.4242424242424243" height="3.4242424242424243" style="fill:#000;shape-rendering:crispEdges;"/>
<rect x="65.06060606060606" y="65.06060606060606" width="3.4242424242424243" height="3.4242424242424243" style="fill:#000;shape-rendering:crispEdges;"/>
<rect x="68.48484848484848" y="65.06060606060606" width="3.4242424242424243" height="3.4242424242424243" style="fill:#000;shape-rendering:crispEdges;"/>
<rect x="78.75757575757575" y="65.06060606060606" width="3.4242424242424243" height="3.4242424242424243" style="fill:#000;shape-rendering:crispEdges;"/>
<rect x="89.03030303030303" y="65.06060606060606" width="3.4242424242424243" height="3.4242424242424243" style="fill:#000;shape-rendering:crispEdges;"/>
<rect x="102.72727272727272" y="65.06060606060606" width="3.4242424242424243" height="3.4242424242424243" style="fill:#000;shape-rendering:crispEdges;"/>
<rect x="6.848484848484849" y="68.48484848484848" width="3.4242424242424243" height="3.4242424242424243" style="fill:#000;shape-rendering:crispEdges;"/>
<rect x="23.96969696969697" y="68.48484848484848" width="3.4242424242424243" height="3.4242424242424243" style="fill:#000;shape-rendering:crispEdges;"/>
<rect x="27.393939393939394" y="68.48484848484848" width="3.4242424242424243" height="3.4242424242424243" style="fill:#000;shape-rendering:crispEdges;"/>
<rect x="30.818181818181817" y="68.48484848484848" width="3.4242424242424243" height="3.4242424242424243" style="fill:#000;shape-rendering:crispEdges;"/>
<rect x="37.66666666666667" y="68.48484848484848" width="3.4242424242424243" height="3.4242424242424243" style="fill:#000;shape-rendering:crispEdges;"/>
<rect x="41.09090909090909" y="68.48484848484848" width="3.4242424242424243" height="3.4242424242424243" style="fill:#000;shape-rendering:crispEdges;"/>
<rect x="47.939393939393945" y="68.48484848484848" width="3.4242424242424243" height="3.4242424242424243" style="fill:#000;shape-rendering:crispEdges;"/>
<rect x="51.36363636363637" y="68.48484848484848" width="3.4242424242424243" height="3.4242424242424243" style="fill:#000;shape-rendering:crispEdges;"/>
<rect x="58.21212121212122" y="68.48484848484848" width="3.4242424242424243" height="3.4242424242424243" style="fill:#000;shape-rendering:crispEdges;"/>
<rect x="65.06060606060606" y="68.48484848484848" width="3.4242424242424243" height="3.4242424242424243" style="fill:#000;shape-rendering:crispEdges;"/>
<rect x="68.48484848484848" y="68.48484848484848" width="3.4242424242424243" height="3.4242424242424243" style="fill:#000;shape-rendering:crispEdges;"/>
<rect x="75.33333333333333" y="68.48484848484848" width="3.4242424242424243" height="3.4242424242424243" style="fill:#000;shape-rendering:crispEdges;"/>
<rect x="85.60606060606061" y="68.48484848484848" width="3.4242424242424243" height="3.4242424242424243" style="fill:#000;shape-rendering:crispEdges;"/>
<rect x="92.45454545454545" y="68.48484848484848" width="3.4242424242424243" height="3.4242424242424243" style="fill:#000;shape-rendering:crispEdges;"/>
<rect x="95.87878787878788" y="68.48484848484848" width="3.4242424242424243" height="3.4242424242424243" style="fill:#000;shape-rendering:crispEdges;"/>
<rect x="102.72727272727272" y="68.48484848484848" width="3.4242424242424243" height="3.4242424242424243" style="fill:#000;shape-rendering:crispEdges;"/>
<rect x="10.272727272727273" y="71.9090909090909" width="3.4242424242424243" height="3.4242424242424243" style="fill:#000;shape-rendering:crispEdges;"/>
<rect x="20.545454545454547" y="71.9090909090909" width="3.4242424242424243" height="3.4242424242424243" style="fill:#000;shape-rendering:crispEdges;"/>
<rect x="30.818181818181817" y="71.9090909090909" width="3.4242424242424243" height="3.4242424242424243" style="fill:#000;shape-rendering:crispEdges;"/>
<rect x="34.24242424242424" y="71.9090909090909" width="3.4242424242424243" height="3.4242424242424243" style="fill:#000;shape-rendering:crispEdges;"/>
<rect x="37.66666666666667" y="71.9090909090909" width="3.4242424242424243" height="3.4242424242424243" style="fill:#000;shape-rendering:crispEdges;"/>
<rect x="44.515151515151516" y="71.9090909090909" width="3.4242424242424243" height="3.4242424242424243" style="fill:#000;shape-rendering:crispEdges;"/>
<rect x="54.78787878787879" y="71.9090909090909" width="3.4242424242424243" height="3.4242424242424243" style="fill:#000;shape-rendering:crispEdges;"/>
<rect x="65.06060606060606" y="71.9090909090909" width="3.4242424242424243" height="3.4242424242424243" style="fill:#000;shape-rendering:crispEdges;"/>
<rect x="68.48484848484848" y="71.9090909090909" width="3.4242424242424243" height="3.4242424242424243" style="fill:#000;shape-rendering:crispEdges;"/>
<rect x="82.18181818181817" y="71.9090909090909" width="3.4242424242424243" height="3.4242424242424243" style="fill:#000;shape-rendering:crispEdges;"/>
<rect x="89.03030303030303" y="71.9090909090909" width="3.4242424242424243" height="3.4242424242424243" style="fill:#000;shape-rendering:crispEdges;"/>
<rect x="102.72727272727272" y="71.9090909090909" width="3.4242424242424243" height="3.4242424242424243" style="fill:#000;shape-rendering:crispEdges;"/>
<rect x="13.696969696969697" y="75.33333333333333" width="3.4242424242424243" height="3.4242424242424243" style="fill:#000;shape-rendering:crispEdges;"/>
<rect x="17.12121212121212" y="75.33333333333333" width="3.4242424242424243" height="3.4242424242424243" style="fill:#000;shape-rendering:crispEdges;"/>
<rect x="23.96969696969697" y="75.33333333333333" width="3.4242424242424243" height="3.4242424242424243" style="fill:#000;shape-rendering:crispEdges;"/>
<rect x="27.393939393939394" y="75.33333333333333" width="3.4242424242424243" height="3.4242424242424243" style="fill:#000;shape-rendering:crispEdges;"/>
<rect x="30.818181818181817" y="75.33333333333333" width="3.4242424242424243" height="3.4242424242424243" style="fill:#000;shape-rendering:crispEdges;"/>
<rect x="44.515151515151516" y="75.33333333333333" width="3.4242424242424243" height="3.4242424242424243" style="fill:#000;shape-rendering:crispEdges;"/>
<rect x="47.939393939393945" y="75.33333333333333" width="3.4242424242424243" height="3.4242424242424243" style="fill:#000;shape-rendering:crispEdges;"/>
<rect x="51.36363636363637" y="75.33333333333333" width="3.4242424242424243" height="3.4242424242424243" style="fill:#000;shape-rendering:crispEdges;"/>
<rect x="54.78787878787879" y="75.33333333333333" width="3.4242424242424243" height="3.4242424242424243" style="fill:#000;shape-rendering:crispEdges;"/>
<rect x="61.63636363636364" y="75.33333333333333" width="3.4242424242424243" height="3.4242424242424243" style="fill:#000;shape-rendering:crispEdges;"/>
<rect x="65.06060606060606" y="75.33333333333333" width="3.4242424242424243" height="3.4242424242424243" style="fill:#000;shape-rendering:crispEdges;"/>
<rect x="75.33333333333333" y="75.33333333333333" width="3.4242424242424243" height="3.4242424242424243" style="fill:#000;shape-rendering:crispEdges;"/>
<rect x="78.75757575757575" y="75.33333333333333" width="3.4242424242424243" height="3.4242424242424243" style="fill:#000;shape-rendering:crispEdges;"/>
<rect x="82.18181818181817" y="75.33333333333333" width="3.4242424242424243" height="3.4242424242424243" style="fill:#000;shape-rendering:crispEdges;"/>
<rect x="85.60606060606061" y="75.33333333333333" width="3.4242424242424243" height="3.4242424242424243" style="fill:#000;shape-rendering:crispEdges;"/>
<rect x="89.03030303030303" y="75.33333333333333" width="3.4242424242424243" height="3.4242424242424243" style="fill:#000;shape-rendering:crispEdges;"/>
<rect x="92.45454545454545" y="75.33333333333333" width="3.4242424242424243" height="3.4242424242424243" style="fill:#000;shape-rendering:crispEdges;"/>
<rect x="95.87878787878788" y="75.33333333333333" width="3.4242424242424243" height="3.4242424242424243" style="fill:#000;shape-rendering:crispEdges;"/>
<rect x="102.72727272727272" y="75.33333333333333" width="3.4242424242424243" height="3.4242424242424243" style="fill:#000;shape-rendering:crispEdges;"/>
<rect x="34.24242424242424" y="78.75757575757575" width="3.4242424242424243" height="3.4242424242424243" style="fill:#000;shape-rendering:crispEdges;"/>
<rect x="41.09090909090909" y="78.75757575757575" width="3.4242424242424243" height="3.4242424242424243" style="fill:#000;shape-rendering:crispEdges;"/>
<rect x="44.515151515151516" y="78.75757575757575" width="3.4242424242424243" height="3.4242424242424243" style="fill:#000;shape-rendering:crispEdges;"/>
<rect x="61.63636363636364" y="78.75757575757575" width="3.4242424242424243" height="3.4242424242424243" style="fill:#000;shape-rendering:crispEdges;"/>
<rect x="75.33333333333333" y="78.75757575757575" width="3.4242424242424243" height="3.4242424242424243" style="fill:#000;shape-rendering:crispEdges;"/>
<rect x="89.03030303030303" y="78.75757575757575" width="3.4242424242424243" height="3.4242424242424243" style="fill:#000;shape-rendering:crispEdges;"/>
<rect x="92.45454545454545" y="78.75757575757575" width="3.4242424242424243" height="3.4242424242424243" style="fill:#000;shape-rendering:crispEdges;"/>
<rect x="95.87878787878788" y="78.75757575757575" width="3.4242424242424243" height="3.4242424242424243" style="fill:#000;shape-rendering:crispEdges;"/>
<rect x="6.848484848484849" y="82.18181818181817" width="3.4242424242424243" height="3.4242424242424243" style="fill:#000;shape-rendering:crispEdges;"/>
<rect x="10.272727272727273" y="82.18181818181817" width="3.4242424242424243" height="3.4242424242424243" style="fill:#000;shape-rendering:crispEdges;"/>
<rect x="13.696969696969697" y="82.18181818181817" width="3.4242424242424243" height="3.4242424242424243" style="fill:#000;shape-rendering:crispEdges;"/>
<rect x="17.12121212121212" y="82.18181818181817" width="3.4242424242424243" height="3.4242424242424243" style="fill:#000;shape-rendering:crispEdges;"/>
<rect x="20.545454545454547" y="82.18181818181817" width="3.4242424242424243" height="3.4242424242424243" style="fill:#000;shape-rendering:crispEdges;"/>
<rect x="23.96969696969697" y="82.18181818181817" width="3.4242424242424243" height="3.4242424242424243" style="fill:#000;shape-rendering:crispEdges;"/>
<rect x="27.393939393939394" y="82.18181818181817" width="3.4242424242424243" height="3.4242424242424243" style="fill:#000;shape-rendering:crispEdges;"/>
<rect x="41.09090909090909" y="82.18181818181817" width="3.4242424242424243" height="3.4242424242424243" style="fill:#000;shape-rendering:crispEdges;"/>
<rect x="44.515151515151516" y="82.18181818181817" width="3.4242424242424243" height="3.4242424242424243" style="fill:#000;shape-rendering:crispEdges;"/>
<rect x="47.939393939393945" y="82.18181818181817" width="3.4242424242424243" height="3.4242424242424243" style="fill:#000;shape-rendering:crispEdges;"/>
<rect x="51.36363636363637" y="82.18181818181817" width="3.4242424242424243" height="3.4242424242424243" style="fill:#000;shape-rendering:crispEdges;"/>
<rect x="71.9090909090909" y="82.18181818181817" width="3.4242424242424243" height="3.4242424242424243" style="fill:#000;shape-rendering:crispEdges;"/>
<rect x="75.33333333333333" y="82.18181818181817" width="3.4242424242424243" height="3.4242424242424243" style="fill:#000;shape-rendering:crispEdges;"/>
<rect x="82.18181818181817" y="82.18181818181817" width="3.4242424242424243" height="3.4242424242424243" style="fill:#000;shape-rendering:crispEdges;"/>
<rect x="89.03030303030303" y="82.18181818181817" width="3.4242424242424243" height="3.4242424242424243" style="fill:#000;shape-rendering:crispEdges;"/>
<rect x="6.848484848484849" y="85.60606060606061" width="3.4242424242424243" height="3.4242424242424243" style="fill:#000;shape-rendering:crispEdges;"/>
<rect x="27.393939393939394" y="85.60606060606061" width="3.4242424242424243" height="3.4242424242424243" style="fill:#000;shape-rendering:crispEdges;"/>
<rect x="37.66666666666667" y="85.60606060606061" width="3.4242424242424243" height="3.4242424242424243" style="fill:#000;shape-rendering:crispEdges;"/>
<rect x="41.09090909090909" y="85.60606060606061" width="3.4242424242424243" height="3.4242424242424243" style="fill:#000;shape-rendering:crispEdges;"/>
<rect x="44.515151515151516" y="85.60606060606061" width="3.4242424242424243" height="3.4242424242424243" style="fill:#000;shape-rendering:crispEdges;"/>
<rect x="47.939393939393945" y="85.60606060606061" width="3.4242424242424243" height="3.4242424242424243" style="fill:#000;shape-rendering:crispEdges;"/>
<rect x="51.36363636363637" y="85.60606060606061" width="3.4242424242424243" height="3.4242424242424243" style="fill:#000;shape-rendering:crispEdges;"/>
<rect x="54.78787878787879" y="85.60606060606061" width="3.4242424242424243" height="3.4242424242424243" style="fill:#000;shape-rendering:crispEdges;"/>
<rect x="58.21212121212122" y="85.60606060606061" width="3.4242424242424243" height="3.4242424242424243" style="fill:#000;shape-rendering:crispEdges;"/>
<rect x="61.63636363636364" y="85.60606060606061" width="3.4242424242424243" height="3.4242424242424243" style="fill:#000;shape-rendering:crispEdges;"/>
<rect x="71.9090909090909" y="85.60606060606061" width="3.4242424242424243" height="3.4242424242424243" style="fill:#000;shape-rendering:crispEdges;"/>
<rect x="75.33333333333333" y="85.60606060606061" width="3.4242424242424243" height="3.4242424242424243" style="fill:#000;shape-rendering:crispEdges;"/>
<rect x="89.03030303030303" y="85.60606060606061" width="3.4242424242424243" height="3.4242424242424243" style="fill:#000;shape-rendering:crispEdges;"/>
<rect x="92.45454545454545" y="85.60606060606061" width="3.4242424242424243" height="3.4242424242424243" style="fill:#000;shape-rendering:crispEdges;"/>
<rect x="95.87878787878788" y="85.60606060606061" width="3.4242424242424243" height="3.4242424242424243" style="fill:#000;shape-rendering:crispEdges;"/>
<rect x="102.72727272727272" y="85.60606060606061" width="3.4242424242424243" height="3.4242424242424243" style="fill:#000;shape-rendering:crispEdges;"/>
<rect x="6.848484848484849" y="89.03030303030303" width="3.4242424242424243" height="3.4242424242424243" style="fill:#000;shape-rendering:crispEdges;"/>
<rect x="13.696969696969697" y="89.03030303030303" width="3.4242424242424243" height="3.4242424242424243" style="fill:#000;shape-rendering:crispEdges;"/>
<rect x="17.12121212121212" y="89.03030303030303" width="3.4242424242424243" height="3.4242424242424243" style="fill:#000;shape-rendering:crispEdges;"/>
<rect x="20.545454545454547" y="89.03030303030303" width="3.4242424242424243" height="3.4242424242424243" style="fill:#000;shape-rendering:crispEdges;"/>
<rect x="27.393939393939394" y="89.03030303030303" width="3.4242424242424243" height="3.4242424242424243" style="fill:#000;shape-rendering:crispEdges;"/>
<rect x="34.24242424242424" y="89.03030303030303" width="3.4242424242424243" height="3.4242424242424243" style="fill:#000;shape-rendering:crispEdges;"/>
<rect x="37.66666666666667" y="89.03030303030303" width="3.4242424242424243" height="3.4242424242424243" style="fill:#000;shape-rendering:crispEdges;"/>
<rect x="51.36363636363637" y="89.03030303030303" width="3.4242424242424243" height="3.4242424242424243" style="fill:#000;shape-rendering:crispEdges;"/>
<rect x="54.78787878787879" y="89.03030303030303" width="3.4242424242424243" height="3.4242424242424243" style="fill:#000;shape-rendering:crispEdges;"/>
<rect x="58.21212121212122" y="89.03030303030303" width="3.4242424242424243" height="3.4242424242424243" style="fill:#000;shape-rendering:crispEdges;"/>
<rect x="65.06060606060606" y="89.03030303030303" width="3.4242424242424243" height="3.4242424242424243" style="fill:#000;shape-rendering:crispEdges;"/>
<rect x="68.48484848484848" y="89.03030303030303" width="3.4242424242424243" height="3.4242424242424243" style="fill:#000;shape-rendering:crispEdges;"/>
<rect x="71.9090909090909" y="89.03030303030303" width="3.4242424242424243" height="3.4242424242424243" style="fill:#000;shape-rendering:crispEdges;"/>
<rect x="75.33333333333333" y="89.03030303030303" width="3.4242424242424243" height="3.4242424242424243" style="fill:#000;shape-rendering:crispEdges;"/>
<rect x="78.75757575757575" y="89.03030303030303" width="3.4242424242424243" height="3.4242424242424243" style="fill:#000;shape-rendering:crispEdges;"/>
<rect x="82.18181818181817" y="89.03030303030303" width="3.4242424242424243" height="3.4242424242424243" style="fill:#000;shape-rendering:crispEdges;"/>
<rect x="85.60606060606061" y="89.03030303030303" width="3.4242424242424243" height="3.4242424242424243" style="fill:#000;shape-rendering:crispEdges;"/>
<rect x="89.03030303030303" y="89.03030303030303" width="3.4242424242424243" height="3.4242424242424243" style="fill:#000;shape-rendering:crispEdges;"/>
<rect x="95.87878787878788" y="89.03030303030303" width="3.4242424242424243" height="3.4242424242424243" style="fill:#000;shape-rendering:crispEdges;"/>
<rect x="6.848484848484849" y="92.45454545454545" width="3.4242424242424243" height="3.4242424242424243" style="fill:#000;shape-rendering:crispEdges;"/>
<rect x="13.696969696969697" y="92.45454545454545" width="3.4242424242424243" height="3.4242424242424243" style="fill:#000;shape-rendering:crispEdges;"/>
<rect x="17.12121212121212" y="92.45454545454545" width="3.4242424242424243" height="3.4242424242424243" style="fill:#000;shape-rendering:crispEdges;"/>
<rect x="20.545454545454547" y="92.45454545454545" width="3.4242424242424243" height="3.4242424242424243" style="fill:#000;shape-rendering:crispEdges;"/>
<rect x="27.393939393939394" y="92.45454545454545" width="3.4242424242424243" height="3.4242424242424243" style="fill:#000;shape-rendering:crispEdges;"/>
<rect x="44.515151515151516" y="92.45454545454545" width="3.4242424242424243" height="3.4242424242424243" style="fill:#000;shape-rendering:crispEdges;"/>
<rect x="51.36363636363637" y="92.45454545454545" width="3.4242424242424243" height="3.4242424242424243" style="fill:#000;shape-rendering:crispEdges;"/>
<rect x="61.63636363636364" y="92.45454545454545" width="3.4242424242424243" height="3.4242424242424243" style="fill:#000;shape-rendering:crispEdges;"/>
<rect x="68.48484848484848" y="92.45454545454545" width="3.4242424242424243" height="3.4242424242424243" style="fill:#000;shape-rendering:crispEdges;"/>
<rect x="71.9090909090909" y="92.45454545454545" width="3.4242424242424243" height="3.4242424242424243" style="fill:#000;shape-rendering:crispEdges;"/>
<rect x="75.33333333333333" y="92.45454545454545" width="3.4242424242424243" height="3.4242424242424243" style="fill:#000;shape-rendering:crispEdges;"/>
<rect x="78.75757575757575" y="92.45454545454545" width="3.4242424242424243" height="3.4242424242424243" style="fill:#000;shape-rendering:crispEdges;"/>
<rect x="82.18181818181817" y="92.45454545454545" width="3.4242424242424243" height="3.4242424242424243" style="fill:#000;shape-rendering:crispEdges;"/>
<rect x="89.03030303030303" y="92.45454545454545" width="3.4242424242424243" height="3.4242424242424243" style="fill:#000;shape-rendering:crispEdges;"/>
<rect x="99.3030303030303" y="92.45454545454545" width="3.4242424242424243" height="3.4242424242424243" style="fill:#000;shape-rendering:crispEdges;"/>
<rect x="6.848484848484849" y="95.87878787878788" width="3.4242424242424243" height="3.4242424242424243" style="fill:#000;shape-rendering:crispEdges;"/>
<rect x="13.696969696969697" y="95.87878787878788" width="3.4242424242424243" height="3.4242424242424243" style="fill:#000;shape-rendering:crispEdges;"/>
<rect x="17.12121212121212" y="95.87878787878788" width="3.4242424242424243" height="3.4242424242424243" style="fill:#000;shape-rendering:crispEdges;"/>
<rect x="20.545454545454547" y="95.87878787878788" width="3.4242424242424243" height="3.4242424242424243" style="fill:#000;shape-rendering:crispEdges;"/>
<rect x="27.393939393939394" y="95.87878787878788" width="3.4242424242424243" height="3.4242424242424243" style="fill:#000;shape-rendering:crispEdges;"/>
<rect x="34.24242424242424" y="95.87878787878788" width="3.4242424242424243" height="3.4242424242424243" style="fill:#000;shape-rendering:crispEdges;"/>
<rect x="37.66666666666667" y="95.87878787878788" width="3.4242424242424243" height="3.4242424242424243" style="fill:#000;shape-rendering:crispEdges;"/>
<rect x="41.09090909090909" y="95.87878787878788" width="3.4242424242424243" height="3.4242424242424243" style="fill:#000;shape-rendering:crispEdges;"/>
<rect x="51.36363636363637" y="95.87878787878788" width="3.4242424242424243" height="3.4242424242424243" style="fill:#000;shape-rendering:crispEdges;"/>
<rect x="54.78787878787879" y="95.87878787878788" width="3.4242424242424243" height="3.4242424242424243" style="fill:#000;shape-rendering:crispEdges;"/>
<rect x="58.21212121212122" y="95.87878787878788" width="3.4242424242424243" height="3.4242424242424243" style="fill:#000;shape-rendering:crispEdges;"/>
<rect x="65.06060606060606" y="95.87878787878788" width="3.4242424242424243" height="3.4242424242424243" style="fill:#000;shape-rendering:crispEdges;"/>
<rect x="71.9090909090909" y="95.87878787878788" width="3.4242424242424243" height="3.4242424242424243" style="fill:#000;shape-rendering:crispEdges;"/>
<rect x="75.33333333333333" y="95.87878787878788" width="3.4242424242424243" height="3.4242424242424243" style="fill:#000;shape-rendering:crispEdges;"/>
<rect x="95.87878787878788" y="95.87878787878788" width="3.4242424242424243" height="3.4242424242424243" style="fill:#000;shape-rendering:crispEdges;"/>
<rect x="99.3030303030303" y="95.87878787878788" width="3.4242424242424243" height="3.4242424242424243" style="fill:#000;shape-rendering:crispEdges;"/>
<rect x="6.848484848484849" y="99.3030303030303" width="3.4242424242424243" height="3.4242424242424243" style="fill:#000;shape-rendering:crispEdges;"/>
<rect x="27.393939393939394" y="99.3030303030303" width="3.4242424242424243" height="3.4242424242424243" style="fill:#000;shape-rendering:crispEdges;"/>
<rect x="34.24242424242424" y="99.3030303030303" width="3.4242424242424243" height="3.4242424242424243" style="fill:#000;shape-rendering:crispEdges;"/>
<rect x="37.66666666666667" y="99.3030303030303" width="3.4242424242424243" height="3.4242424242424243" style="fill:#000;shape-rendering:crispEdges;"/>
<rect x="51.36363636363637" y="99.3030303030303" width="3.4242424242424243" height="3.4242424242424243" style="fill:#000;shape-rendering:crispEdges;"/>
<rect x="65.06060606060606" y="99.3030303030303" width="3.4242424242424243" height="3.4242424242424243" style="fill:#000;shape-rendering:crispEdges;"/>
<rect x="75.33333333333333" y="99.3030303030303" width="3.4242424242424243" height="3.4242424242424243" style="fill:#000;shape-rendering:crispEdges;"/>
<rect x="85.60606060606061" y="99.3030303030303" width="3.4242424242424243" height="3.4242424242424243" style="fill:#000;shape-rendering:crispEdges;"/>
<rect x="89.03030303030303" y="99.3030303030303" width="3.4242424242424243" height="3.4242424242424243" style="fill:#000;shape-rendering:crispEdges;"/>
<rect x="92.45454545454545" y="99.3030303030303" width="3.4242424242424243" height="3.4242424242424243" style="fill:#000;shape-rendering:crispEdges;"/>
<rect x="95.87878787878788" y="99.3030303030303" width="3.4242424242424243" height="3.4242424242424243" style="fill:#000;shape-rendering:crispEdges;"/>
<rect x="6.848484848484849" y="102.72727272727272" width="3.4242424242424243" height="3.4242424242424243" style="fill:#000;shape-rendering:crispEdges;"/>
<rect x="10.272727272727273" y="102.72727272727272" width="3.4242424242424243" height="3.4242424242424243" style="fill:#000;shape-rendering:crispEdges;"/>
<rect x="13.696969696969697" y="102.72727272727272" width="3.4242424242424243" height="3.4242424242424243" style="fill:#000;shape-rendering:crispEdges;"/>
<rect x="17.12121212121212" y="102.72727272727272" width="3.4242424242424243" height="3.4242424242424243" style="fill:#000;shape-rendering:crispEdges;"/>
<rect x="20.545454545454547" y="102.72727272727272" width="3.4242424242424243" height="3.4242424242424243" style="fill:#000;shape-rendering:crispEdges;"/>
<rect x="23.96969696969697" y="102.72727272727272" width="3.4242424242424243" height="3.4242424242424243" style="fill:#000;shape-rendering:crispEdges;"/>
<rect x="27.393939393939394" y="102.72727272727272" width="3.4242424242424243" height="3.4242424242424243" style="fill:#000;shape-rendering:crispEdges;"/>
<rect x="34.24242424242424" y="102.72727272727272" width="3.4242424242424243" height="3.4242424242424243" style="fill:#000;shape-rendering:crispEdges;"/>
<rect x="44.515151515151516" y="102.72727272727272" width="3.4242424242424243" height="3.4242424242424243" style="fill:#000;shape-rendering:crispEdges;"/>
<rect x="47.939393939393945" y="102.72727272727272" width="3.4242424242424243" height="3.4242424242424243" style="fill:#000;shape-rendering:crispEdges;"/>
<rect x="51.36363636363637" y="102.72727272727272" width="3.4242424242424243" height="3.4242424242424243" style="fill:#000;shape-rendering:crispEdges;"/>
<rect x="54.78787878787879" y="102.72727272727272" width="3.4242424242424243" height="3.4242424242424243" style="fill:#000;shape-rendering:crispEdges;"/>
<rect x="58.21212121212122" y="102.72727272727272" width="3.4242424242424243" height="3.4242424242424243" style="fill:#000;shape-rendering:crispEdges;"/>
<rect x="68.48484848484848" y="102.72727272727272" width="3.4242424242424243" height="3.4242424242424243" style="fill:#000;shape-rendering:crispEdges;"/>
<rect x="85.60606060606061" y="102.72727272727272" width="3.4242424242424243" height="3.4242424242424243" style="fill:#000;shape-rendering:crispEdges;"/>
<rect x="95.87878787878788" y="102.72727272727272" width="3.4242424242424243" height="3.4242424242424243" style="fill:#000;shape-rendering:crispEdges;"/>
<rect x="99.3030303030303" y="102.72727272727272" width="3.4242424242424243" height="3.4242424242424243" style="fill:#000;shape-rendering:crispEdges;"/>
</svg>