<svg xmlns="http://www.w3.org/2000/svg" xmlns:xlink="http://www.w3.org/1999/xlink" width="373" height="140" viewBox="0 0 373 140">
    <defs>
        <filter id="a" width="146.4%" height="467.7%" x="-23.2%" y="-183.9%" filterUnits="objectBoundingBox">
            <feGaussianBlur in="SourceGraphic" stdDeviation="2.587"/>
        </filter>
        <path id="b" d="M27.755 2.021L.432 75.553a2.353 2.353 0 0 0 1.387 3.025l40.456 15.009a2.355 2.355 0 0 0 3.027-1.387l27.324-73.532a2.362 2.362 0 0 0-1.386-3.032L30.785.628a2.365 2.365 0 0 0-3.03 1.393"/>
        <linearGradient id="d" x1="62.264%" x2="3.086%" y1="114.118%" y2="-35.262%">
            <stop offset="0%" stop-color="#009FEE"/>
            <stop offset="100%" stop-color="#004CC9"/>
        </linearGradient>
        <linearGradient id="e" x1="62.107%" x2="3.686%" y1="114.118%" y2="-35.262%">
            <stop offset="0%" stop-color="#009FEE"/>
            <stop offset="100%" stop-color="#004CC9"/>
        </linearGradient>
        <path id="f" d="M19.718.49c-1.526.252-4.058 1.508-4.944 2.483-2.956 3.247-5.625 8.738-5.625 8.738L1.26 9.546.01 13.012l11.32 4.312c2.33-3.541 3.843-7.146 3.843-7.146-.471 4.689-3.09 14.892-3.428 16.145-.416 1.539.012 2.522.837 2.667L24.6 31.096c.747.13 1.191.025 1.656-1.666.482-1.74 2.963-16.827 2.963-16.827l3.18 8.999 11.937-3.114.128-3.869-8.985 2.012S32.183 7.12 31.104 4.987c-.669-1.323-1.632-1.661-3.15-2.666a5.803 5.803 0 0 0-1.215-.639c-.294 1.092-2.415 1.439-3.468 1.254-1.054-.185-2.34-1.172-2.392-2.589-.31.012-.707.06-1.161.142"/>
        <linearGradient id="g" x1="63.216%" x2="36.41%" y1="74.521%" y2="18.699%">
            <stop offset="0%" stop-color="#3301A0"/>
            <stop offset="100%" stop-color="#6901A0"/>
        </linearGradient>
        <path id="i" d="M19.649 1.187S10.764 9.07 7.202 13.277c-.63.747-1.079 1.37-1.274 1.8-.377.831-1.04 3.098-1.794 5.884-.182.662-.364 1.357-.553 2.065a820.966 820.966 0 0 0-3.535 14.14c-.034.156.104.273.259.24.69-.136 1.865.656 2.451.935.787.376 2.294-.045 2.294-.98 0-.578-.26-1.137.014-1.924.43-1.26 2.86-7.76 3.951-10.397.105-.267.202-.494.28-.67.162-.356.332-.798.507-1.305.494-1.39 1.066-3.319 1.658-5.702.019-.065.038-.137.071-.209.208-.52.741-1.11 1.469-1.727 2.964-2.546 9.145-5.572 9.834-5.91a.164.164 0 0 1 .137-.013l2.692.714c.09.026.154.104.154.195-.006.903-.025 5.638-.148 9.716-.027.78-.053 1.533-.085 2.235-.072 1.663-.17 3.02-.299 3.65-.091.435-.28 1.363-.533 2.598-.13.63-.273 1.337-.429 2.104-1.242 6.072-3.172 15.743-3.302 17.348-.169 2.157-.858 4.163-.364 3.585.448-.526 3.53-1.669 4.063-1.87a.212.212 0 0 1 .155.012l1.65.76c.145.066.307-.038.294-.195a16.992 16.992 0 0 1 .013-2.377c.078-1.045 1.69-9.177 2.931-15.243.156-.74.3-1.442.436-2.104.377-1.819.689-3.287.859-4.053.096-.429.227-1.137.383-2.046.11-.623.226-1.345.357-2.13C32.929 15.44 34.6 3.832 34.6 3.832c.184-1.353-.584-.709-6.948-1.98C21.756.675 21.666.473 20.502.3a.401.401 0 0 0-.061-.004c-.498 0-.792.891-.792.891"/>
    </defs>
    <g fill="none" fill-rule="evenodd">
        <path fill="#000" fill-opacity=".3" d="M322.978 249.36c0 1.165-7.497 2.11-16.745 2.11-9.247 0-16.744-.945-16.744-2.11 0-1.166 7.497-2.111 16.744-2.111 9.248 0 16.745.945 16.745 2.11" filter="url(#a)" transform="translate(-35.556 -111.889)"/>
        <g transform="translate(250.033 22.998)">
            <mask id="c" fill="#fff">
                <use xlink:href="#b"/>
            </mask>
            <path d="M27.755 2.021L.432 75.553a2.353 2.353 0 0 0 1.387 3.025l40.456 15.009a2.355 2.355 0 0 0 3.027-1.387l27.324-73.532a2.362 2.362 0 0 0-1.386-3.032L30.785.628a2.365 2.365 0 0 0-3.03 1.393" mask="url(#c)"/>
        </g>
        <path fill="url(#d)" d="M307.32 126.2c-3.756 1.562-18.229 7.576-26.305 23.129-1.718 3.309-9.795 18.863-3.842 32.606 7.875 18.183 31.897 13.77 42.92 30.881 9.479 14.714-10.158 29.191-1.706 46.725 4.414 9.154 14.577 16.794 23.985 17.498 29.36 2.198 82.092-60.86 60.648-110.32-12.162-28.053-45.107-44.624-73.378-44.624-8.008 0-15.642 1.33-22.322 4.105" opacity=".6" transform="translate(-35.017 -111.095)"/>
        <path fill="url(#e)" d="M82.795 27.062c-4.719 1.974-22.9 9.579-33.046 29.243-2.158 4.183-12.305 23.85-4.827 41.225 9.893 22.99 40.07 17.41 53.918 39.045 11.908 18.604-12.761 36.907-2.143 59.076 5.545 11.575 18.313 21.234 30.132 22.124 36.883 2.778 103.127-76.95 76.188-139.482-15.278-35.47-56.665-56.421-92.18-56.421-10.06 0-19.65 1.68-28.042 5.19" opacity=".6" transform="rotate(118 141.622 53.791)"/>
        <path fill="#FFF" fill-opacity=".2" d="M273.028 9.668c-20.22 1.866-37.07 9.835-41.925 19.832-3.275 6.739-2.716 16.905 2.008 23.863 4.437 6.537 11.739 8.017 18.284 9.29 6.692 1.302 13.012 2.53 16.381 9.108 3.72 7.262 2.61 14.578 1.537 21.652-1.167 7.69-2.27 14.952 2.72 21.699 4.684 6.334 13.44 10.128 24.656 10.68 6.543.328 16.582-.988 27.228-9.055l.197.258-.196-.26c21.092-15.99 30.144-58.138 10.64-84.534-10.833-14.66-30.14-22.944-52.714-22.944a95.76 95.76 0 0 0-8.816.411zm23.63 116.773c-11.415-.562-20.345-4.449-25.148-10.944-5.15-6.963-4.028-14.355-2.84-22.18 1.058-6.974 2.153-14.184-1.472-21.26-3.226-6.296-9.395-7.496-15.927-8.767-6.675-1.298-14.538-3.005-19.125-9.764-4.843-7.136-4.996-17.378-1.629-24.31 4.953-10.193 22.012-18.31 42.451-20.195 26.537-2.446 49.756 6.073 62.112 22.794 19.71 26.674 10.553 69.274-10.77 85.438l-.196-.258.195.259c-9.862 7.474-19.22 9.23-25.837 9.23-.63 0-1.235-.015-1.814-.043z" opacity=".6"/>
        <path fill="#010080" d="M285.907 50.124c1.277-1.113 2.395-6.564-.462-5.196-2.857 1.37-.681 5.235-.681 5.235l1.143-.04z"/>
        <path fill="#F8B7B0" d="M286.683 61.959c2.586.68 4.436-.57 5.047-1.176.61-.606-1-1.49-1.53-2.24-.226-.319-.275-.798-.207-1.393.089-.803.388-1.817.75-2.93l-5.173-1.598s-.159 2.68-.283 3.673a1.505 1.505 0 0 1-.123.454c-.27.596-.938.78-2.049 1.469-1.353.839.981 3.06 3.568 3.74"/>
        <path fill="#E49F98" d="M285.287 56.294a1.484 1.484 0 0 1-.033.185c.52.622 1.144 1.119 1.693 1.188.853.107 1.958-.186 3.11-.952.13-.72.387-1.575.687-2.495l-5.173-1.598s-.16 2.68-.284 3.672"/>
        <path fill="#F8B7B0" d="M292.618 51.048c-.58 2.537-.908 3.76-2.163 4.67-1.255.911-2.474 1.266-3.399 1.15-1.155-.145-2.643-2.184-2.804-3.308-.166-1.164-.227-4.116.496-6.882.366-1.403 2.345-2.911 4.162-2.683 1.816.227 5.125.856 3.708 7.053"/>
        <path fill="#F8B7B0" d="M283.748 50.397c.091.963.574 1.705 1.08 1.657.504-.047.839-.867.749-1.83-.092-.963-.575-1.705-1.08-1.657-.505.048-.84.867-.749 1.83"/>
        <g transform="translate(263.683 56.771)">
            <mask id="h" fill="#fff">
                <use xlink:href="#f"/>
            </mask>
            <path fill="url(#g)" d="M19.718.49c-1.526.252-4.058 1.508-4.944 2.483-2.956 3.247-5.625 8.738-5.625 8.738L1.26 9.546.01 13.012l11.32 4.312c2.33-3.541 3.843-7.146 3.843-7.146-.471 4.689-3.09 14.892-3.428 16.145-.416 1.539.012 2.522.837 2.667L24.6 31.096c.747.13 1.191.025 1.656-1.666.482-1.74 2.963-16.827 2.963-16.827l3.18 8.999 11.937-3.114.128-3.869-8.985 2.012S32.183 7.12 31.104 4.987c-.669-1.323-1.632-1.661-3.15-2.666a5.803 5.803 0 0 0-1.215-.639c-.294 1.092-2.415 1.439-3.468 1.254-1.054-.185-2.34-1.172-2.392-2.589-.31.012-.707.06-1.161.142" mask="url(#h)"/>
        </g>
        <g fill="#4003A9">
            <path d="M281.157 133.012c.235.536 1.46 1.827 3.22 2.75 1.762.922 5.455 1.73 3.257 2.257-2.199.526-3.663.455-6.988-.651-1.397-.404-1.263-.47-2.762-.407-1.497.062-2.596.458-1.89-2.433.707-2.891 4.402-3.247 5.163-1.516M255.404 120.884c-.117.573-1.63 1.885-3.156 3.158-1.528 1.273-3.311 1.94-2.102 2.592 2.094 1.127 3.125.143 6.141-1.64 1.28-.689 1.22-.432 2.614-.981.955-.375 1.763-.876 1.334-2.777-.655-2.903-4.453-2.206-4.83-.352"/>
        </g>
        <g transform="translate(255.233 83.4)">
            <mask id="j" fill="#fff">
                <use xlink:href="#i"/>
            </mask>
            <path fill="#FF7D43" d="M19.649 1.187S10.764 9.07 7.202 13.277c-.63.747-1.079 1.37-1.274 1.8-.377.831-1.04 3.098-1.794 5.884-.182.662-.364 1.357-.553 2.065a820.966 820.966 0 0 0-3.535 14.14c-.034.156.104.273.259.24.69-.136 1.865.656 2.451.935.787.376 2.294-.045 2.294-.98 0-.578-.26-1.137.014-1.924.43-1.26 2.86-7.76 3.951-10.397.105-.267.202-.494.28-.67.162-.356.332-.798.507-1.305.494-1.39 1.066-3.319 1.658-5.702.019-.065.038-.137.071-.209.208-.52.741-1.11 1.469-1.727 2.964-2.546 9.145-5.572 9.834-5.91a.164.164 0 0 1 .137-.013l2.692.714c.09.026.154.104.154.195-.006.903-.025 5.638-.148 9.716-.027.78-.053 1.533-.085 2.235-.072 1.663-.17 3.02-.299 3.65-.091.435-.28 1.363-.533 2.598-.13.63-.273 1.337-.429 2.104-1.242 6.072-3.172 15.743-3.302 17.348-.169 2.157-.858 4.163-.364 3.585.448-.526 3.53-1.669 4.063-1.87a.212.212 0 0 1 .155.012l1.65.76c.145.066.307-.038.294-.195a16.992 16.992 0 0 1 .013-2.377c.078-1.045 1.69-9.177 2.931-15.243.156-.74.3-1.442.436-2.104.377-1.819.689-3.287.859-4.053.096-.429.227-1.137.383-2.046.11-.623.226-1.345.357-2.13C32.929 15.44 34.6 3.832 34.6 3.832c.184-1.353-.584-.709-6.948-1.98C21.756.675 21.666.473 20.502.3a.401.401 0 0 0-.061-.004c-.498 0-.792.891-.792.891" mask="url(#j)"/>
        </g>
        <path fill="#010080" d="M292.193 46.697c-3.515-.408-5.984-.942-7.178-2.562-1.194-1.619-.095-1.8.792-1.241 0 0 .586-1.492 1.95-.554 0 0 1.767-1.152 3.102.676 0 0 2.41-.72 2.622 1.16 0 0 1.813 2.88-1.288 2.521"/>
        <path fill="#010080" d="M293.813 45.923c.962 1.394.696 6.953-1.733 4.92-2.429-2.032.333-4.823.333-4.823l1.4-.097z"/>
        <path fill="#F8B7B0" d="M291.864 50.864c-.475.844-.501 1.728-.06 1.977.442.248 1.185-.233 1.66-1.076.475-.843.501-1.728.06-1.977-.442-.248-1.186.233-1.66 1.076"/>
        <path fill="#010080" d="M289.773 87.13l-14.725-2.654a.167.167 0 0 1-.128-.22l.518-1.468a.168.168 0 0 1 .187-.11l14.488 2.535a.166.166 0 0 1 .136.194l-.281 1.588a.167.167 0 0 1-.195.135"/>
        <path fill="#EEFAFF" d="M291.638 59.092c-1.116 1.343-2.782 2.062-4.483 1.764-1.842-.323-3.241-1.755-3.754-3.596.454-.082.851-.13 1.162-.14.052 1.415 1.338 2.403 2.39 2.587 1.054.185 3.175-.161 3.47-1.253.4.143.808.368 1.215.638"/>
        <path fill="#010080" d="M294.684 45.916a.775.775 0 0 0-.343-1.042l-.7 1.385a.777.777 0 0 0 1.043-.343M286.346 46.045a2.447 2.447 0 0 0 1.58-3.08l-4.661 1.5a2.45 2.45 0 0 0 3.081 1.58"/>
        <path fill="#010080" d="M288.317 46.54a1.63 1.63 0 0 0 .133-2.301l-2.437 2.168c.6.673 1.631.732 2.304.134M294.541 46.897a.775.775 0 0 0 .614-.909l-1.523.296c.082.42.489.695.91.613"/>
        <path fill="#EEEDF3" d="M317.425 43.218l-.572 1.533-23.1 62.189a1.28 1.28 0 0 1-1.645.746l-5.077-1.883-6.129-2.273-12.669-4.702-5.798-2.15-4.621-1.715c-.5-.188-.813-.65-.825-1.143a1.177 1.177 0 0 1 .07-.494l6.215-16.717v-.007l3.01-8.086v-.007l1.586-4.267 8.534-22.96 4.336-11.67a1.27 1.27 0 0 1 1.637-.748l8.073 2.994L307 37.996l3.074 1.143 5.83 2.163.767.286c.663.24 1.001.974.754 1.63m3.848-4.585l-.89-.332-5.83-2.162-3.082-1.144-16.549-6.137-14.104-5.235a2.366 2.366 0 0 0-3.03 1.396l-7.592 20.42-8.527 22.966-1.593 4.267v.007l-3.003 8.086-6.61 17.783c-.079.22-.124.448-.137.67a2.332 2.332 0 0 0 1.527 2.357l7.515 2.786 5.667 2.104 14.95 5.547 5.447 2.02 6.877 2.552a2.36 2.36 0 0 0 3.03-1.382l26.818-72.198.501-1.338a2.356 2.356 0 0 0-1.385-3.033"/>
        <path fill="#EEEDF3" d="M311.471 34.996l-4.472 3-39.13 26.246-6.2 4.163 8.527-22.966 6.208-4.156 14.046-9.424 4.472-3.001zM320.383 38.302l-4.479 3-52.63 35.3v.006l-6.2 4.157 3.002-8.086v-.006l6.208-4.157v-.007l43.79-29.37 4.478-3z" opacity=".1"/>
        <path fill="#C8C7D9" d="M270.936 106.055a2.214 2.214 0 1 1 1.542-4.15 2.213 2.213 0 1 1-1.542 4.15"/>
        <g fill="#000" fill-opacity=".1">
            <path d="M279.556 114.117l5.44 2.02c.157-.74.3-1.442.436-2.105l-5.447-2.02c-.13.63-.273 1.338-.429 2.105M258.815 106.426l5.434 2.014c.104-.267.201-.493.28-.67.162-.356.33-.797.506-1.304l-5.667-2.105c-.183.663-.365 1.357-.553 2.065"/>
        </g>
        <path fill="#F8B7B0" d="M261.84 67.941c.584.113 1.483-.055 1.92-.283.438-.23.855-1.56.99-2.514.138-.953-1.094-.833-1.094-.833s.48-.19 1.263-.298c.783-.107 1.092-1-.04-.984-1.134.015-2.238.555-3.287 2.7 0 0-1.076 1.997.007 2.86l.24-.648zM313.332 69.702c.006-.756-1.304-1.968-1.665-1.482-.36.487-1.355 2.236-1.184 3.09.171.854.603 1.5.603 1.5l-.249.669s2.47-.499 2.495-3.777"/>
        <path fill="#000" fill-opacity=".1" d="M318.347 11.633l-13.822-1.658a1.08 1.08 0 0 0-1.2.945l-1.654 13.856a1.082 1.082 0 0 0 .944 1.203l13.821 1.658a1.08 1.08 0 0 0 1.2-.946l1.655-13.855a1.082 1.082 0 0 0-.944-1.203"/>
        <path fill="#FF7D43" d="M319.304 25.609l-14.828-1.779a1.16 1.16 0 0 1-1.013-1.29l1.775-14.864a1.159 1.159 0 0 1 1.287-1.015l14.828 1.78a1.16 1.16 0 0 1 1.013 1.29l-1.775 14.863a1.159 1.159 0 0 1-1.287 1.015"/>
        <path fill="#FFF" d="M314.892 17.361c-.524-.064-.961.328-1.415.272-.453-.056-2.256-2.241-2.197-2.722.059-.48.54-.657.6-1.152.044-.356-1.05-2.692-1.617-2.762-.566-.07-2.045.738-2.154 1.63-.32 2.607 4.03 8.185 7.119 8.566.85.104 2.032-.629 2.155-1.63.042-.343-1.981-2.14-2.491-2.202z"/>
        <g>
            <path fill="#000" fill-opacity=".1" d="M331.587 55.917c-.178-.748-1.173-.908-1.577-.253l-1.632 2.653-.917-3.842a1.448 1.448 0 0 0-1.744-1.072l-10.583 2.52a1.446 1.446 0 0 0-1.074 1.742l2.521 10.576a1.448 1.448 0 0 0 1.745 1.071l10.584-2.518a1.448 1.448 0 0 0 1.072-1.743l-.915-3.843 2.655 1.633c.655.403 1.47-.187 1.292-.935l-1.427-5.99z"/>
            <path fill="#34A4FF" d="M331.27 52.796l-1.752 2.846-.983-4.121a1.554 1.554 0 0 0-1.871-1.15l-11.354 2.702a1.551 1.551 0 0 0-1.15 1.87l2.704 11.344a1.553 1.553 0 0 0 1.871 1.15l11.354-2.702a1.552 1.552 0 0 0 1.151-1.87l-.983-4.121 2.848 1.75c.704.433 1.58-.2 1.388-1.002l-1.532-6.425c-.19-.803-1.258-.974-1.69-.27"/>
            <path fill="#FFF" d="M320.676 55.848l4.149 2.55-2.553 4.145"/>
        </g>
        <g>
            <path fill="#000" fill-opacity=".1" d="M217.393 33.746c-3.003 2.493-3.416 6.97-.921 10.001 2.495 3.03 6.953 3.465 9.957.971 3.003-2.492 3.417-6.97.921-10-2.495-3.03-6.953-3.466-9.957-.972"/>
            <path fill="#3BB5D5" d="M225.479 32.986a7.59 7.59 0 0 1-1.01 10.681 7.58 7.58 0 0 1-10.675-1.015 7.581 7.581 0 1 1 11.685-9.665"/>
            <g transform="rotate(-22 196.844 -530.816)">
                <ellipse cx="4.718" cy="4.749" stroke="#FFF" stroke-width=".611" rx="4.718" ry="4.749"/>
                <ellipse cx="4.718" cy="4.749" stroke="#FFF" stroke-width=".611" rx="3.145" ry="3.166"/>
                <ellipse cx="4.718" cy="4.749" fill="#FFF" rx="1.048" ry="1.055"/>
                <path fill="#FFF" d="M3.67 9.973l.995-5.751.996 5.751z"/>
            </g>
        </g>
        <path fill="#000" fill-opacity=".1" d="M251.588 75.319a7.235 7.235 0 0 0-4.753 9.064 7.243 7.243 0 0 0 9.071 4.75 7.236 7.236 0 1 0-4.318-13.814"/>
        <g>
            <path fill="#000" fill-opacity=".1" d="M247.898 19.777l3.542 11.588c.221.722.985 1.128 1.706.907l7.245-2.214.57 1.864-2.131.651a.602.602 0 0 0 .352 1.15l6.108-1.866a.602.602 0 1 0-.352-1.15l-2.203.673-.57-1.865 7.245-2.215a1.366 1.366 0 0 0 .907-1.706l-3.543-11.588a1.366 1.366 0 0 0-1.706-.907l-16.263 4.972a1.366 1.366 0 0 0-.907 1.706z"/>
            <path fill="#34A4FF" d="M245.801 18.704l3.543 11.588c.22.722.985 1.128 1.706.908l7.244-2.215.57 1.864-2.13.651a.602.602 0 1 0 .352 1.15l6.107-1.866a.602.602 0 0 0-.352-1.15l-2.203.673-.57-1.865 7.246-2.215a1.366 1.366 0 0 0 .907-1.706l-3.543-11.588a1.366 1.366 0 0 0-1.706-.907l-16.264 4.972a1.366 1.366 0 0 0-.907 1.706z"/>
            <path fill="#FFF" fill-rule="nonzero" d="M253.597 24.83l.127.415-2.704.827-1.47-4.805 1.018-.311 1.216 3.977 1.687-.516zM254.294 25.07l-1.469-4.805 1.018-.31 1.47 4.804zM258.87 23.671l-.817.25-3.621-4.147 1.073-.328 2.606 3.21.366-4.118 1.073-.328zM263.256 17.982l-1.945.594.362 1.183 1.854-.567.253.828-1.854.567.348 1.139 1.945-.595.253.828-2.963.906-1.469-4.805 2.963-.906.126.412z"/>
        </g>
        <g>
            <path fill="#000" fill-opacity=".1" d="M335.837 97.544c-2.038-1.154-4.449.731-3.82 2.987l5.032 18.07c.63 2.256 3.67 2.631 4.819.594l6.506-11.535a2.632 2.632 0 0 0-.998-3.582l-11.539-6.534z"/>
            <path fill="#F8AB05" d="M339.944 106.113l-12.335-7.147c-2.179-1.26-4.713.727-4.016 3.152l5.574 19.416c.697 2.425 3.928 2.867 5.123.7l6.76-12.27c.739-1.344.243-3.067-1.106-3.85"/>
            <path fill="#FFF" fill-rule="nonzero" d="M330.213 113.256c-.062.015-.13.01-.273-.03-1.078-.634-1.764-1.527-2.05-2.673-.281-1.132-.102-2.24.536-3.316.102-.167.282-.212.501-.125.192.113.242.311.123.504-.555.87-.71 1.788-.466 2.764.237.952.805 1.69 1.713 2.224.17.101.216.282.126.498a.33.33 0 0 1-.21.154zm-1.078-3.013c-.216-.866-.084-1.675.376-2.38.091-.227.308-.28.48-.158.204.097.255.298.136.491-.364.592-.463 1.213-.298 1.874.17.684.555 1.19 1.168 1.529.172.102.218.284.12.482a.367.367 0 0 1-.223.175.367.367 0 0 1-.279-.05c-.77-.453-1.267-1.111-1.48-1.963zm2.416.917c-.116.029-.222.015-.251-.033a1.838 1.838 0 0 1-.92-1.195c-.133-.536-.053-1.03.235-1.459.117-.19.315-.24.497-.11.164.119.21.3.105.473-.179.29-.226.593-.144.923.082.33.275.582.584.764.195.114.245.315.08.529a.466.466 0 0 1-.186.108zm.894-1.053a.667.667 0 0 1-.512-.072.648.648 0 0 1-.308-.413.67.67 0 0 1 .497-.812.665.665 0 0 1 .51.072.647.647 0 0 1 .308.411.641.641 0 0 1-.078.51.665.665 0 0 1-.417.304zm.633 4.014l-.837-3.356c-.052-.208.053-.378.26-.43.209-.052.381.05.433.257l.837 3.356c.052.209-.053.378-.261.43-.208.052-.38-.049-.432-.257zm.67-3.509c-.137.034-.265.007-.294-.059-.164-.118-.209-.3-.104-.473.178-.29.225-.593.143-.924-.076-.306-.262-.555-.56-.749-.173-.101-.218-.285-.13-.466.099-.2.3-.25.485-.14.462.247.765.646.898 1.181.134.537.054 1.03-.217 1.424a.313.313 0 0 1-.22.206zm1.09.64a.35.35 0 0 1-.262-.041c-.205-.096-.256-.299-.137-.492a2.346 2.346 0 0 0 .298-1.873c-.164-.66-.543-1.162-1.143-1.514-.195-.115-.245-.316-.127-.47.111-.217.326-.27.485-.135.767.428 1.263 1.08 1.479 1.946.213.855.088 1.654-.373 2.383a.292.292 0 0 1-.22.195zm.857.574l-.056-.022c-.192-.113-.242-.312-.123-.505.555-.87.71-1.787.467-2.764-.244-.977-.811-1.714-1.713-2.222-.192-.113-.242-.312-.106-.528.133-.153.313-.198.485-.097 1.066.65 1.744 1.544 2.026 2.675.283 1.132.103 2.24-.574 3.362a.465.465 0 0 1-.188.11.465.465 0 0 1-.218-.01z"/>
        </g>
        <g>
            <path fill="#FF7D43" d="M248.178 76.291a7.763 7.763 0 0 0-5.1 9.724 7.77 7.77 0 0 0 9.733 5.095 7.76 7.76 0 0 0 5.098-9.724 7.763 7.763 0 0 0-9.731-5.095"/>
            <path fill="#FFF" fill-rule="nonzero" d="M251.144 85.186c1.001-.578 1.3-1.92.655-3.037l-.962-1.666c-.645-1.118-1.956-1.53-2.957-.951-1.002.578-1.3 1.919-.655 3.037l.962 1.665c.645 1.118 1.936 1.541 2.957.952zm1.99-3.803c-.106-.184-.373-.247-.588-.123a.409.409 0 0 0-.167.559c.024.04.047.082.08.09l.154.265c.694 1.203.214 2.813-1.102 3.573-1.294.747-2.95.37-3.645-.833l-.177-.306c-.011-.02-.002-.053-.025-.094-.106-.183-.373-.247-.567-.135a.409.409 0 0 0-.167.559l.295.51c.86 1.489 2.73 1.987 4.357 1.319l.4.693-1.035.598a.435.435 0 0 0-.176.592c.117.204.372.247.588.122l2.805-1.62c.237-.136.284-.354.167-.558a.428.428 0 0 0-.58-.155l-1.035.598-.4-.694c1.459-1.06 1.96-2.981 1.1-4.47l-.282-.49z"/>
        </g>
    </g>
</svg>
