<svg xmlns="http://www.w3.org/2000/svg" width="18" height="19"><path fill="#C6C6C6" fill-rule="evenodd" d="M15.452 11.388c-.01-.957-.38-1.476-.806-2.154-.192-.282-.414-.472-.605-.755-.03-.153.032-.268-.012-.67-.043-.605-.264-.839-.31-.913.02-.16-.044-1.484-.523-2.267-1.462-2.612-4.23-2.707-4.568-2.709h-.004c-.338.002-3.106.097-4.568 2.709-.479.783-.543 2.107-.523 2.267-.046.074-.267.308-.31.912-.044.403.018.518-.012.671-.191.283-.413.473-.605.755-.425.678-.797 1.197-.806 2.154-.007.714.162 1.687.663 1.7.158-.012.293-.117.567-.424a6.3 6.3 0 0 0 .428-.588c.056.149.19 1.184 1.12 1.723-.956.45-1.424.735-1.44 1.32.02.337.423.787 1.165.996a6.05 6.05 0 0 0 2.928.049c.535-.13.696-.259 1.395-.643.7.384.86.514 1.395.643a6.052 6.052 0 0 0 2.928-.049c.742-.21 1.145-.659 1.165-.997-.016-.584-.484-.868-1.44-1.319.93-.539 1.064-1.574 1.12-1.723a6.3 6.3 0 0 0 .428.588c.274.307.41.412.567.424.5-.013.67-.986.663-1.7z"/></svg>