<svg xmlns="http://www.w3.org/2000/svg" width="18" height="19"><g fill="#C6C6C6"><path d="M13.084 8.594c-.236-.071-.398-.12-.274-.432.268-.678.296-1.264.005-1.681-.544-.783-2.034-.74-3.742-.021 0-.001-.536.236-.4-.192.264-.85.224-1.562-.185-1.973-.926-.934-3.39.035-5.503 2.161-1.582 1.593-2.5 3.281-2.5 4.741 0 2.792 3.556 4.49 7.036 4.49 4.562 0 7.597-2.668 7.597-4.786 0-1.28-1.071-2.007-2.034-2.307zM7.53 14.686c-2.776.276-5.173-.987-5.354-2.823-.18-1.835 1.925-3.546 4.702-3.822 2.777-.277 5.174.987 5.354 2.821.18 1.836-1.924 3.548-4.702 3.824zm8.584-11.202a4.421 4.421 0 0 0-4.227-1.377.646.646 0 0 0 .268 1.265 3.145 3.145 0 0 1 3.005.979c.782.873.995 2.064.66 3.109-.11.34.076.704.414.814.337.11.7-.076.809-.416v-.002a4.49 4.49 0 0 0-.93-4.372"/><path d="M14.422 5.021a2.153 2.153 0 0 0-2.059-.67.556.556 0 0 0 .231 1.088c.357-.075.745.036 1.007.328.262.293.333.692.22 1.042a.553.553 0 1 0 1.052.342 2.185 2.185 0 0 0-.45-2.13M7.808 9.453c-1.321-.346-2.815.317-3.389 1.489-.584 1.195-.02 2.522 1.316 2.956 1.383.449 3.013-.24 3.58-1.53.558-1.26-.14-2.56-1.507-2.915zm-1.009 3.053c-.269.43-.844.62-1.277.42-.427-.195-.553-.696-.284-1.116.265-.42.82-.606 1.25-.424.436.186.575.684.311 1.12zm.885-1.144c-.097.167-.312.248-.48.178-.166-.068-.218-.255-.124-.42.097-.163.304-.243.469-.177.167.062.227.251.135.42z"/></g></svg>