<svg xmlns="http://www.w3.org/2000/svg" width="20" height="17" viewBox="0 0 20 17">
    <path fill="#83C73A" fill-rule="evenodd" d="M13.49 4.97c.229 0 .455.017.68.042C13.558 2.17 10.52.06 7.052.06 3.176.06 0 2.702 0 6.057c0 1.937 1.057 3.528 2.822 4.762l-.705 2.121 2.465-1.236c.883.175 1.59.354 2.471.354.221 0 .44-.01.658-.028a5.254 5.254 0 0 1-.217-1.478c0-3.081 2.646-5.582 5.996-5.582zM9.698 3.058c.53 0 .883.35.883.88 0 .529-.352.883-.883.883-.529 0-1.06-.354-1.06-.883 0-.53.531-.88 1.06-.88zM4.762 4.821c-.529 0-1.062-.354-1.062-.883 0-.53.533-.88 1.062-.88.528 0 .88.35.88.88 0 .529-.352.883-.88.883zm15.165 5.646c0-2.82-2.821-5.118-5.99-5.118-3.356 0-6 2.299-6 5.118 0 2.825 2.644 5.119 6 5.119.702 0 1.41-.178 2.116-.354l1.934 1.059-.53-1.763c1.415-1.062 2.47-2.47 2.47-4.06zm-7.936-.882c-.35 0-.705-.35-.705-.706 0-.351.354-.705.705-.705.534 0 .883.354.883.705 0 .357-.35.706-.883.706zm3.88 0c-.349 0-.7-.35-.7-.706 0-.351.351-.705.7-.705.529 0 .883.354.883.705 0 .357-.354.706-.883.706z"/>
</svg>
