<svg id="icon_huafei" viewBox="0 0 28 40" width="100%" height="100%"><path d="M865,272H843a3,3,0,0,1-3-3V235a3,3,0,0,1,3-3h22a3,3,0,0,1,3,3v34A3,3,0,0,1,865,272Zm0-36a1,1,0,0,0-1-1H844a1,1,0,0,0-1,1v3h22v-3Zm0,5H843v21h22V241Zm0,23H843v4a1,1,0,0,0,1,1h20a1,1,0,0,0,1-1v-4Zm-10.5,4a1.5,1.5,0,1,1,1.5-1.5A1.5,1.5,0,0,1,854.5,268Z" transform="translate(-840 -232)" fill="#d4c6af" fill-rule="evenodd"></path><path d="M854.608,245.851a2.033,2.033,0,0,1,2.018,1.969h2.018q-0.355-3.141-4.036-3.39V243h-1.1v1.43a5.1,5.1,0,0,0-3.062,1.172,3.409,3.409,0,0,0-1.124,2.653q0,2.924,4.186,3.691v5.214a2.72,2.72,0,0,1-2.5-2.685H849q0.287,3.69,4.507,4.1V260h1.1v-1.441a4.633,4.633,0,0,0,3.222-1.306A3.972,3.972,0,0,0,859,254.4a3.326,3.326,0,0,0-.917-2.467,6.825,6.825,0,0,0-3.475-1.389v-4.695Zm-2.684,3.783a1.823,1.823,0,0,1-.6-1.513,2.193,2.193,0,0,1,2.179-2.291v4.509a4.013,4.013,0,0,1-1.583-.705h0Zm2.684,2.529a3.973,3.973,0,0,1,1.892.861,2.058,2.058,0,0,1,.493,1.492,2.384,2.384,0,0,1-2.385,2.644v-5Z" transform="translate(-840 -232)" fill="#d4c6af" fill-rule="evenodd" stroke="#d4c6af" stroke-linejoin="round" stroke-width="1px"></path></svg>